<?xml version="1.0" encoding="UTF-8"?>
<svg width="70px" height="70px" viewBox="0 0 70 70" version="1.1" xmlns="http://www.w3.org/2000/svg" xmlns:xlink="http://www.w3.org/1999/xlink">
    <!-- Generator: Sketch 47.1 (45422) - http://www.bohemiancoding.com/sketch -->
    <title>支付宝</title>
    <desc>Created with Sketch.</desc>
    <defs>
        <linearGradient x1="49.0400761%" y1="100%" x2="47.9801578%" y2="0%" id="linearGradient-1">
            <stop stop-color="#889AFF" offset="0%"></stop>
            <stop stop-color="#53A0FD" offset="47.5247532%"></stop>
            <stop stop-color="#51CAEC" offset="100%"></stop>
        </linearGradient>
        <rect id="path-2" x="0" y="0" width="52" height="52" rx="26"></rect>
        <filter x="-19.2%" y="-15.4%" width="138.5%" height="138.5%" filterUnits="objectBoundingBox" id="filter-3">
            <feOffset dx="0" dy="2" in="SourceAlpha" result="shadowOffsetOuter1"></feOffset>
            <feGaussianBlur stdDeviation="3" in="shadowOffsetOuter1" result="shadowBlurOuter1"></feGaussianBlur>
            <feComposite in="shadowBlurOuter1" in2="SourceAlpha" operator="out" result="shadowBlurOuter1"></feComposite>
            <feColorMatrix values="0 0 0 0 0   0 0 0 0 0   0 0 0 0 0  0 0 0 0.647050498 0" type="matrix" in="shadowBlurOuter1"></feColorMatrix>
        </filter>
        <rect id="path-4" x="5" y="5" width="42" height="42" rx="21"></rect>
    </defs>
    <g id="Page-3" stroke="none" stroke-width="1" fill="none" fill-rule="evenodd">
        <g id="支付宝">
            <g transform="translate(9.000000, 9.000000)">
                <g id="Rectangle-5">
                    <use fill="black" fill-opacity="1" filter="url(#filter-3)" xlink:href="#path-2"></use>
                    <use fill="#181821" fill-rule="evenodd" xlink:href="#path-2"></use>
                    <rect stroke="url(#linearGradient-1)" stroke-width="1" x="0.5" y="0.5" width="51" height="51" rx="25.5"></rect>
                </g>
                <mask id="mask-5" fill="white">
                    <use xlink:href="#path-4"></use>
                </mask>
                <use id="Mask" fill="#00A8FF" xlink:href="#path-4"></use>
                <path d="M24.8884723,10.7240271 C25.7660567,10.6841554 26.6448616,10.6922924 27.5224459,10.6629989 C27.5175637,12.2061966 27.4850154,13.7489875 27.4724029,15.2917783 C29.9477034,15.3064251 32.4221902,15.3275815 34.8974907,15.3357186 C35.6526119,15.3450762 36.40814,15.3296158 37.1628544,15.3560613 C37.1620407,15.8837511 37.1624476,16.411034 37.1628544,16.9387238 C33.9609125,16.9529637 30.7589705,16.9379101 27.5570285,16.9464541 C27.5468572,17.8700129 27.5094266,18.7927581 27.5008827,19.7163169 C29.1116182,19.7207923 30.7219468,19.685396 32.3322754,19.6931263 C33.3831796,19.7000428 34.4353044,19.6723767 35.4853949,19.7224198 C34.91051,22.1623239 33.7997982,24.4232123 32.8322991,26.7219381 C32.654097,27.1523898 32.4640962,27.5795866 32.3123396,28.0198028 C34.5903158,29.0035761 36.9329819,29.8331516 39.2898878,30.6069882 C41.3192762,31.265685 43.3649387,31.8735251 45.4195521,32.4480031 C45.7641575,32.537511 46.1018464,32.6538713 46.4509273,32.724257 L46.4509273,38.9889968 C44.9264449,38.3514564 43.4056241,37.7041515 41.8900925,37.044641 C37.9549994,35.3134767 34.045945,33.5249459 30.1206164,31.7718115 C29.9664187,31.7136314 29.8248334,31.6054082 29.6580233,31.5923889 C29.0025813,32.1713423 28.445598,32.8516024 27.8239249,33.4659521 C26.3893572,34.9281858 24.7375295,36.2020461 22.8712896,37.0633563 C21.4627606,37.7200188 19.9537387,38.1451814 18.4227466,38.3978378 C18.1249294,38.4429986 17.8226368,38.4413712 17.5227853,38.4665962 C16.0723503,38.5325065 14.6333073,38.2403853 13.2504101,37.8258009 C11.9838732,37.485264 10.8023688,36.7838475 9.96058764,35.7703739 C9.03865619,34.6783774 8.56223001,33.2495057 8.55002439,31.8279574 C8.5365982,30.8978889 8.66475725,29.9617175 8.96501559,29.0796578 C9.32833633,28.0019012 9.96587674,27.0169074 10.8105059,26.2532422 C11.9346439,25.2308178 13.3814171,24.5993802 14.8741649,24.3568951 C16.6447941,24.0594847 18.4532606,24.2462308 20.209243,24.5529988 C21.0904891,24.7096376 21.9680734,24.8910946 22.8334522,25.121374 C24.6805699,25.5925111 26.5089723,26.1332202 28.3410364,26.6596894 C28.8565206,25.4061719 29.3695637,24.1510269 29.8716217,22.8918134 C30.0669116,22.3820252 30.2923088,21.883222 30.4684767,21.3661104 C26.384475,21.3567528 22.3008801,21.3522774 18.2172853,21.3469883 C17.155396,21.3380375 16.0930999,21.3539048 15.0316175,21.3335621 C15.0434162,20.7961078 15.055215,20.2586535 15.0600972,19.7207923 C17.2241543,19.7061456 19.3882114,19.6841755 21.5522685,19.6760384 C22.0205576,19.6679013 22.4896604,19.685396 22.9571358,19.6532546 C22.9461507,18.7691605 22.9485919,17.8850665 22.9254012,17.0013794 C20.4199935,17.010737 17.9137721,17.0042273 15.4083644,17.0253838 C14.7224083,17.0229426 14.0364523,17.0379962 13.3509031,17.0237563 C13.3513099,16.4566017 13.3281192,15.8898539 13.3264918,15.3231061 C16.5813248,15.3328706 19.8369715,15.3349049 23.0913977,15.3487379 C23.1036033,15.2828275 23.1060444,15.2156966 23.1048239,15.1493794 C23.0795989,14.5936167 23.0913977,14.0370402 23.0844812,13.4808706 C23.0881428,12.5776545 23.0852949,11.672404 23.1691068,10.7728496 C23.7419574,10.7435561 24.3152149,10.732571 24.8884723,10.7240271 L24.8884723,10.7240271 Z M13.0461693,27.3940611 C12.4240894,27.6906578 11.8150287,28.0291604 11.2820498,28.4697834 C10.7340173,28.9213915 10.2901395,29.514178 10.0777616,30.1968792 C9.93007358,30.6830699 9.84422736,31.2034363 9.93943122,31.709156 C10.0574189,32.3751762 10.3735446,32.991967 10.7702273,33.5343036 C11.2547906,34.1836428 11.8821597,34.7495769 12.6389083,35.0595997 C12.7931061,35.1283581 12.9371324,35.217866 13.0921438,35.2854037 C13.5270709,35.4806937 14.0018697,35.5612508 14.4730067,35.6121076 C15.3237387,35.6971401 16.184642,35.6796454 17.0321192,35.5681674 C20.2759671,35.1421911 23.2846534,33.3353519 25.2802729,30.7567105 C25.5146208,30.440178 25.7615813,30.1281209 25.9462931,29.7794469 C25.0699293,29.3656762 24.2017026,28.9344109 23.3228977,28.5251156 C21.7821411,27.8139346 20.1860524,27.1690708 18.499642,26.9086842 C17.6533854,26.7699469 16.7924821,26.7573344 15.9376816,26.7931376 C14.9490261,26.8094118 13.9453169,26.9652369 13.0461693,27.3940611 L13.0461693,27.3940611 Z" id="Shape" fill="#FFFFFF" fill-rule="nonzero" mask="url(#mask-5)"></path>
            </g>
        </g>
    </g>
</svg>