<?xml version="1.0" encoding="UTF-8"?>
<svg width="70px" height="70px" viewBox="0 0 70 70" version="1.1" xmlns="http://www.w3.org/2000/svg" xmlns:xlink="http://www.w3.org/1999/xlink">
    <!-- Generator: Sketch 47.1 (45422) - http://www.bohemiancoding.com/sketch -->
    <title>企业</title>
    <desc>Created with Sketch.</desc>
    <defs>
        <linearGradient x1="49.0400761%" y1="100%" x2="47.9801578%" y2="0%" id="linearGradient-1">
            <stop stop-color="#889AFF" offset="0%"></stop>
            <stop stop-color="#53A0FD" offset="47.5247532%"></stop>
            <stop stop-color="#51CAEC" offset="100%"></stop>
        </linearGradient>
        <rect id="path-2" x="0" y="0" width="52" height="52" rx="26"></rect>
        <filter x="-19.2%" y="-15.4%" width="138.5%" height="138.5%" filterUnits="objectBoundingBox" id="filter-3">
            <feOffset dx="0" dy="2" in="SourceAlpha" result="shadowOffsetOuter1"></feOffset>
            <feGaussianBlur stdDeviation="3" in="shadowOffsetOuter1" result="shadowBlurOuter1"></feGaussianBlur>
            <feComposite in="shadowBlurOuter1" in2="SourceAlpha" operator="out" result="shadowBlurOuter1"></feComposite>
            <feColorMatrix values="0 0 0 0 0   0 0 0 0 0   0 0 0 0 0  0 0 0 0.647050498 0" type="matrix" in="shadowBlurOuter1"></feColorMatrix>
        </filter>
        <filter x="-22.0%" y="-15.4%" width="144.0%" height="149.2%" filterUnits="objectBoundingBox" id="filter-4">
            <feOffset dx="0" dy="2" in="SourceAlpha" result="shadowOffsetOuter1"></feOffset>
            <feGaussianBlur stdDeviation="1.5" in="shadowOffsetOuter1" result="shadowBlurOuter1"></feGaussianBlur>
            <feColorMatrix values="0 0 0 0 0.0363605064   0 0 0 0 0.255896253   0 0 0 0 0.709954294  0 0 0 0.194321784 0" type="matrix" in="shadowBlurOuter1" result="shadowMatrixOuter1"></feColorMatrix>
            <feMerge>
                <feMergeNode in="shadowMatrixOuter1"></feMergeNode>
                <feMergeNode in="SourceGraphic"></feMergeNode>
            </feMerge>
        </filter>
    </defs>
    <g id="Page-3" stroke="none" stroke-width="1" fill="none" fill-rule="evenodd">
        <g id="企业">
            <g transform="translate(9.000000, 9.000000)">
                <g id="Rectangle-5">
                    <use fill="black" fill-opacity="1" filter="url(#filter-3)" xlink:href="#path-2"></use>
                    <use fill="#181821" fill-rule="evenodd" xlink:href="#path-2"></use>
                    <rect stroke="url(#linearGradient-1)" stroke-width="1" x="0.5" y="0.5" width="51" height="51" rx="25.5"></rect>
                </g>
                <rect id="Rectangle-5" fill="#3976C7" x="5" y="5" width="42" height="42" rx="21"></rect>
                <g id="企业办公楼" filter="url(#filter-4)" transform="translate(14.000000, 14.000000)" fill-rule="nonzero" fill="#FFFFFF">
                    <polygon id="Shape" points="4.41176471 4.41176471 8.08823529 4.41176471 8.08823529 7.35294118 4.41176471 7.35294118 4.41176471 4.41176471"></polygon>
                    <polygon id="Shape" points="9.55882353 4.41176471 13.2352941 4.41176471 13.2352941 7.35294118 9.55882353 7.35294118 9.55882353 4.41176471"></polygon>
                    <polygon id="Shape" points="4.41176471 8.82352941 8.08823529 8.82352941 8.08823529 11.7647059 4.41176471 11.7647059 4.41176471 8.82352941"></polygon>
                    <polygon id="Shape" points="9.55882353 8.82352941 13.2352941 8.82352941 13.2352941 11.7647059 9.55882353 11.7647059 9.55882353 8.82352941"></polygon>
                    <polygon id="Shape" points="18.3823529 8.82352941 20.5882353 8.82352941 20.5882353 11.7647059 18.3823529 11.7647059 18.3823529 8.82352941"></polygon>
                    <polygon id="Shape" points="18.3823529 13.2352941 20.5882353 13.2352941 20.5882353 16.1764706 18.3823529 16.1764706"></polygon>
                    <polygon id="Shape" points="4.41176471 13.2352941 8.08823529 13.2352941 8.08823529 16.1764706 4.41176471 16.1764706"></polygon>
                    <polygon id="Shape" points="9.55882353 13.2352941 13.2352941 13.2352941 13.2352941 16.1764706 9.55882353 16.1764706"></polygon>
                    <path d="M24.1071429,21.040724 L24.1071429,5.26018098 L16.9642857,5.26018098 L16.9642857,0 L0.892857153,0 L0.892857153,21.040724 L0,21.040724 L0,22.7941176 L25,22.7941176 L25,21.040724 L24.1071429,21.040724 Z M2.67857144,21.040724 L2.67857144,1.75339364 L15.1785714,1.75339364 L15.1785714,21.040724 L2.67857144,21.040724 Z M16.9642857,21.040724 L16.9642857,7.01357465 L22.3214286,7.01357465 L22.3214286,21.040724 L16.9642857,21.040724 Z" id="Shape"></path>
                </g>
            </g>
        </g>
    </g>
</svg>