<?xml version="1.0" encoding="UTF-8"?>
<svg width="70px" height="70px" viewBox="0 0 70 70" version="1.1" xmlns="http://www.w3.org/2000/svg" xmlns:xlink="http://www.w3.org/1999/xlink">
    <!-- Generator: Sketch 47.1 (45422) - http://www.bohemiancoding.com/sketch -->
    <title>微信</title>
    <desc>Created with Sketch.</desc>
    <defs>
        <linearGradient x1="49.0400761%" y1="100%" x2="47.9801578%" y2="0%" id="linearGradient-1">
            <stop stop-color="#889AFF" offset="0%"></stop>
            <stop stop-color="#53A0FD" offset="47.5247532%"></stop>
            <stop stop-color="#51CAEC" offset="100%"></stop>
        </linearGradient>
        <rect id="path-2" x="0" y="0" width="52" height="52" rx="26"></rect>
        <filter x="-19.2%" y="-15.4%" width="138.5%" height="138.5%" filterUnits="objectBoundingBox" id="filter-3">
            <feOffset dx="0" dy="2" in="SourceAlpha" result="shadowOffsetOuter1"></feOffset>
            <feGaussianBlur stdDeviation="3" in="shadowOffsetOuter1" result="shadowBlurOuter1"></feGaussianBlur>
            <feComposite in="shadowBlurOuter1" in2="SourceAlpha" operator="out" result="shadowBlurOuter1"></feComposite>
            <feColorMatrix values="0 0 0 0 0   0 0 0 0 0   0 0 0 0 0  0 0 0 0.647050498 0" type="matrix" in="shadowBlurOuter1"></feColorMatrix>
        </filter>
    </defs>
    <g id="Page-3" stroke="none" stroke-width="1" fill="none" fill-rule="evenodd">
        <g id="微信">
            <g transform="translate(9.000000, 9.000000)">
                <g id="Rectangle-5">
                    <use fill="black" fill-opacity="1" filter="url(#filter-3)" xlink:href="#path-2"></use>
                    <use fill="#181821" fill-rule="evenodd" xlink:href="#path-2"></use>
                    <rect stroke="url(#linearGradient-1)" stroke-width="1" x="0.5" y="0.5" width="51" height="51" rx="25.5"></rect>
                </g>
                <rect id="Rectangle-5" fill="#08AF00" x="5" y="5" width="42" height="42" rx="21"></rect>
                <g transform="translate(13.000000, 15.000000)" id="Shape" fill-rule="nonzero" fill="#FFFFFF">
                    <path d="M18.0866977,7.24339336 C18.3935496,7.24339336 18.6962698,7.26931493 19,7.30597541 C18.1816669,3.11365088 14.1087933,0 9.45716743,0 C4.25864973,0 0,3.89675138 0,8.84729844 C0,11.7038546 1.41590784,14.049352 3.78371169,15.8713685 L2.8390998,19 L6.14579227,17.1779162 C7.32790378,17.4328228 8.2761271,17.697997 9.4571674,17.697997 C9.75416434,17.697997 10.0484986,17.683151 10.3386705,17.6589463 C10.1555265,16.9632385 10.0464174,16.2353139 10.0464174,15.4764854 C10.0485293,10.9322 13.5952922,7.24339336 18.0866977,7.24339336 L18.0866977,7.24339336 Z M13.002951,4.42363236 C13.7173781,4.42363236 14.1870825,4.94027938 14.1870825,5.72213431 C14.1870825,6.50112773 13.7173474,7.02299274 13.002951,7.02299274 C12.2962979,7.02299274 11.584962,6.50112773 11.584962,5.72213431 C11.584962,4.93802389 12.2947064,4.42363236 13.002951,4.42363236 L13.002951,4.42363236 Z M6.38430193,7.02299274 C5.67452698,7.02299274 4.96006936,6.50112773 4.96006936,5.72213431 C4.96006936,4.94024573 5.67452698,4.42363236 6.38430193,4.42363236 C7.09407688,4.42363236 7.56534223,4.93802389 7.56534223,5.72213431 C7.56534223,6.50112773 7.09407688,7.02299274 6.38430193,7.02299274 L6.38430193,7.02299274 Z"></path>
                    <path d="M28,15.01403 C28,11.149639 23.9982163,8 19.5041584,8 C14.7452263,8 11,11.1517976 11,15.01403 C11,18.8891202 14.7473945,22.0290923 19.5041584,22.0290923 C20.5007776,22.0290923 21.5050664,21.7879843 22.5049541,21.5457814 L25.2464417,23 L24.494827,20.5833518 C26.502369,19.1249098 28,17.194826 28,15.01403 L28,15.01403 Z M16.7461019,13.8041416 C16.2494589,13.8041416 15.7462142,13.3262116 15.7462142,12.8375199 C15.7462142,12.3563363 16.2494913,11.8719618 16.7461019,11.8719618 C17.5054186,11.8719618 17.9976605,12.3563363 17.9976605,12.8375199 C17.9976605,13.3262116 17.5054185,13.8041416 16.7461019,13.8041416 L16.7461019,13.8041416 Z M22.2467139,13.8041416 C21.754472,13.8041416 21.2522952,13.3262116 21.2522952,12.8375199 C21.2522952,12.3563363 21.7522391,11.8719618 22.2467139,11.8719618 C22.9993965,11.8719618 23.4982725,12.3563363 23.4982725,12.8375199 C23.4982401,13.3262116 22.9993642,13.8041416 22.2467139,13.8041416 L22.2467139,13.8041416 Z"></path>
                </g>
            </g>
        </g>
    </g>
</svg>