<?xml version="1.0" encoding="UTF-8" standalone="no"?>
<svg width="0px" height="0px" style="visibility:hidden;" version="1.1" xmlns="http://www.w3.org/2000/svg" xmlns:xlink="http://www.w3.org/1999/xlink">
	<symbol id="loading" stroke="none" fill="none" fill-rule="evenodd" viewBox="410.9 199.9 139.6 161.6">
		<g id="XMLID_525_">
			<g id="XMLID_840_">
				<path id="XMLID_841_" fill="#00DCFF" d="M541.1,321.4c-0.4-0.7-0.8-1.2-1.1-1.5s-0.5-0.6-0.7-0.7s-0.4-0.1-0.5-0.1
					c-0.4,0-0.6,0-0.7-0.2c-0.1-0.1-0.1-0.2,0-0.3c0.3-0.4,0.5-0.7,0.7-1s0.3-0.5,0.4-0.6c0.1-0.2,0.1-0.3,0.2-0.3
					c0.1-0.1,0.1-0.1,0.2-0.2c0.1-0.1,0.2-0.1,0.4-0.1s0.3,0,0.3,0.1c0.1,0.1,0.1,0.2,0.2,0.4c0,0.2,0.2,0.4,0.3,0.7
					c0.2,0.3,0.4,0.8,0.7,1.4s0.8,1.4,1.4,2.4c0.7,1.1,1.2,2,1.7,2.8c0.5,0.7,0.9,1.4,1.2,1.9c0.1,0.2,0.2,0.3,0.3,0.3
					c0.1,0.1,0.2,0.1,0.3,0.1s0.2,0,0.2,0.1c0.1,0,0.1,0.1,0.2,0.1c0.1,0.1,0,0.3-0.2,0.5s-0.5,0.4-0.8,0.6c-0.5,0.3-0.8,0.4-0.9,0.4
					c-0.2,0-0.3,0-0.3-0.1c0,0,0-0.1,0-0.2s0-0.2,0-0.4c0-0.1,0-0.1,0-0.2s-0.1-0.2-0.2-0.5s-0.3-0.6-0.5-1s-0.6-1-1-1.7
					C542.1,322.9,541.6,322.1,541.1,321.4z"/>
			</g>
			<g id="XMLID_837_">
				<path id="XMLID_838_" fill="#00DCFF" d="M414,236.5c-0.4-0.7-0.8-1.2-1.1-1.5c-0.3-0.3-0.5-0.6-0.7-0.7c-0.2-0.1-0.4-0.1-0.5-0.1
					c-0.4,0-0.6,0-0.7-0.2c-0.1-0.1-0.1-0.2,0-0.3c0.3-0.4,0.5-0.7,0.7-1s0.3-0.5,0.4-0.6s0.1-0.3,0.2-0.3c0-0.1,0.1-0.1,0.2-0.2
					c0.1-0.1,0.2-0.1,0.4-0.1s0.3,0,0.3,0.1c0.1,0.1,0.1,0.2,0.1,0.4s0.2,0.4,0.3,0.7c0.2,0.3,0.4,0.8,0.7,1.4
					c0.3,0.6,0.8,1.4,1.4,2.4c0.7,1.1,1.2,2,1.7,2.8c0.5,0.7,0.9,1.4,1.2,1.9c0.1,0.2,0.2,0.3,0.3,0.3c0.1,0.1,0.2,0.1,0.3,0.1
					c0.1,0,0.2,0,0.2,0.1c0.1,0,0.1,0.1,0.2,0.1c0.1,0.1,0,0.3-0.2,0.5s-0.5,0.4-0.8,0.6c-0.5,0.3-0.8,0.4-0.9,0.4s-0.3,0-0.3-0.1
					c0,0,0-0.1,0-0.2s0-0.2,0-0.4c0-0.1,0-0.1,0-0.2c0-0.1-0.1-0.2-0.2-0.5c-0.1-0.2-0.3-0.6-0.5-1s-0.6-1-1-1.7
					C415,238.1,414.5,237.2,414,236.5z"/>
			</g>
			<g id="XMLID_834_">
				<path id="XMLID_835_" fill="#00DCFF" d="M414,269.9c-0.4-0.7-0.8-1.2-1.1-1.5c-0.3-0.3-0.5-0.6-0.7-0.7s-0.4-0.1-0.5-0.1
					c-0.4,0-0.6,0-0.7-0.2c-0.1-0.1-0.1-0.2,0-0.3c0.3-0.4,0.5-0.7,0.7-1s0.3-0.5,0.4-0.6s0.1-0.3,0.2-0.3c0.1-0.1,0.1-0.1,0.2-0.2
					s0.2-0.1,0.4-0.1c0.2,0,0.3,0,0.3,0.1c0.1,0.1,0.1,0.2,0.1,0.4c0,0.2,0.2,0.4,0.3,0.7c0.2,0.3,0.4,0.8,0.7,1.4
					c0.3,0.6,0.8,1.4,1.4,2.4c0.7,1.1,1.2,2,1.7,2.8c0.5,0.7,0.9,1.4,1.2,1.9c0.1,0.2,0.2,0.3,0.3,0.3c0.1,0.1,0.2,0.1,0.3,0.1
					c0.1,0,0.2,0,0.3,0.1c0.1,0,0.1,0.1,0.2,0.1c0.1,0.1,0,0.3-0.2,0.5s-0.5,0.4-0.8,0.6c-0.5,0.3-0.8,0.4-0.9,0.4
					c-0.2,0-0.3,0-0.3-0.1c0,0,0-0.1,0-0.2s0-0.2,0-0.4c0-0.1,0-0.1,0-0.2s-0.1-0.2-0.2-0.5c-0.1-0.2-0.3-0.6-0.5-1s-0.6-1-1-1.7
					C415,271.4,414.5,270.5,414,269.9z"/>
			</g>
			<g id="XMLID_831_">
				<path id="XMLID_832_" fill="#00DCFF" d="M437.9,241.5c-0.4-0.7-0.8-1.2-1.1-1.5c-0.3-0.3-0.5-0.6-0.7-0.7c-0.2-0.1-0.4-0.1-0.5-0.1
					c-0.4,0-0.6,0-0.7-0.2c-0.1-0.1-0.1-0.2,0-0.3c0.3-0.4,0.5-0.7,0.7-1s0.3-0.5,0.4-0.6c0.1-0.2,0.1-0.3,0.2-0.3
					c0-0.1,0.1-0.1,0.2-0.2c0.1-0.1,0.2-0.1,0.4-0.1c0.2,0,0.3,0,0.3,0.1c0.1,0.1,0.1,0.2,0.2,0.4c0,0.2,0.2,0.4,0.3,0.7
					c0.2,0.3,0.4,0.8,0.7,1.4c0.3,0.6,0.8,1.4,1.4,2.4c0.7,1.1,1.2,2,1.7,2.8c0.5,0.7,0.9,1.4,1.2,1.9c0.1,0.2,0.2,0.3,0.3,0.3
					c0.1,0.1,0.2,0.1,0.3,0.1c0.1,0,0.2,0,0.3,0.1c0.1,0,0.1,0.1,0.2,0.1c0.1,0.1,0,0.3-0.2,0.5s-0.5,0.4-0.8,0.6
					c-0.5,0.3-0.8,0.4-0.9,0.4c-0.2,0-0.3,0-0.3-0.1c0,0,0-0.1,0-0.2c0-0.1,0-0.2,0-0.4c0-0.1,0-0.1,0-0.2c0-0.1-0.1-0.2-0.2-0.5
					c-0.1-0.2-0.3-0.6-0.5-1s-0.6-1-1-1.7C438.9,243.1,438.4,242.2,437.9,241.5z"/>
			</g>
			<g id="XMLID_828_">
				<path id="XMLID_829_" fill="#00DCFF" d="M434.6,278.9c-0.4-0.7-0.8-1.2-1.1-1.5c-0.3-0.3-0.5-0.6-0.7-0.7s-0.4-0.1-0.5-0.1
					c-0.4,0-0.6,0-0.7-0.2c-0.1-0.1-0.1-0.2,0-0.3c0.3-0.4,0.5-0.7,0.7-1s0.3-0.5,0.4-0.6c0.1-0.2,0.1-0.3,0.2-0.3
					c0.1-0.1,0.1-0.1,0.2-0.2s0.2-0.1,0.4-0.1c0.2,0,0.3,0,0.3,0.1c0.1,0.1,0.1,0.2,0.2,0.4c0,0.1,0.2,0.4,0.3,0.7
					c0.2,0.3,0.4,0.8,0.7,1.4c0.3,0.6,0.8,1.4,1.4,2.4c0.7,1.1,1.2,2,1.7,2.8c0.5,0.7,0.9,1.4,1.2,1.9c0.1,0.2,0.2,0.3,0.3,0.3
					c0.1,0.1,0.2,0.1,0.3,0.1c0.1,0,0.2,0,0.3,0.1c0.1,0,0.1,0.1,0.2,0.1c0.1,0.1,0,0.3-0.2,0.5s-0.5,0.4-0.8,0.6
					c-0.5,0.3-0.8,0.4-0.9,0.4c-0.2,0-0.3,0-0.3-0.1c0,0,0-0.1,0-0.2s0-0.2,0-0.4c0-0.1,0-0.1,0-0.2s-0.1-0.2-0.2-0.5
					c-0.1-0.2-0.3-0.6-0.5-1s-0.6-1-1-1.7C435.6,280.4,435.1,279.6,434.6,278.9z"/>
			</g>
			<g id="XMLID_825_">
				<path id="XMLID_826_" fill="#00DCFF" d="M434.6,307.8c-0.4-0.7-0.8-1.2-1.1-1.5c-0.3-0.3-0.5-0.6-0.7-0.7s-0.4-0.1-0.5-0.1
					c-0.4,0-0.6,0-0.7-0.2c-0.1-0.1-0.1-0.2,0-0.3c0.3-0.4,0.5-0.7,0.7-1s0.3-0.5,0.4-0.6c0.1-0.2,0.1-0.3,0.2-0.3
					c0.1-0.1,0.1-0.1,0.2-0.2s0.2-0.1,0.4-0.1c0.2,0,0.3,0,0.3,0.1c0.1,0.1,0.1,0.2,0.2,0.4c0,0.1,0.2,0.4,0.3,0.7
					c0.2,0.3,0.4,0.8,0.7,1.4c0.3,0.6,0.8,1.4,1.4,2.4c0.7,1.1,1.2,2,1.7,2.8c0.5,0.7,0.9,1.4,1.2,1.9c0.1,0.2,0.2,0.3,0.3,0.3
					c0.1,0.1,0.2,0.1,0.3,0.1c0.1,0,0.2,0,0.3,0.1c0.1,0,0.1,0.1,0.2,0.1c0.1,0.1,0,0.3-0.2,0.5s-0.5,0.4-0.8,0.6
					c-0.5,0.3-0.8,0.4-0.9,0.4c-0.2,0-0.3,0-0.3-0.1c0,0,0-0.1,0-0.2s0-0.2,0-0.4c0-0.1,0-0.1,0-0.2s-0.1-0.2-0.2-0.5
					c-0.1-0.2-0.3-0.6-0.5-1s-0.6-1-1-1.7C435.6,309.3,435.1,308.5,434.6,307.8z"/>
			</g>
			<g id="XMLID_822_">
				<path id="XMLID_823_" fill="#00DCFF" d="M530.6,273.3c-0.4-0.7-0.8-1.2-1.1-1.5s-0.5-0.6-0.7-0.7s-0.4-0.1-0.5-0.1
					c-0.4,0-0.6,0-0.7-0.2c-0.1-0.1-0.1-0.2,0-0.3c0.3-0.4,0.5-0.7,0.7-1s0.3-0.5,0.4-0.6c0.1-0.2,0.1-0.3,0.2-0.3
					c0-0.1,0.1-0.1,0.2-0.2c0.1-0.1,0.2-0.1,0.4-0.1s0.3,0,0.3,0.1c0.1,0.1,0.1,0.2,0.1,0.4c0,0.2,0.2,0.4,0.3,0.7
					c0.2,0.3,0.4,0.8,0.7,1.4s0.8,1.4,1.4,2.4c0.7,1.1,1.2,2,1.7,2.8c0.5,0.7,0.9,1.4,1.2,1.9c0.1,0.2,0.2,0.3,0.3,0.3
					c0.1,0.1,0.2,0.1,0.3,0.1s0.2,0,0.3,0.1c0.1,0,0.1,0.1,0.2,0.1c0.1,0.1,0,0.3-0.2,0.5s-0.5,0.4-0.8,0.6c-0.5,0.3-0.8,0.4-0.9,0.4
					c-0.2,0-0.3,0-0.3-0.1c0,0,0-0.1,0-0.2s0-0.2,0-0.4c0-0.1,0-0.1,0-0.2s-0.1-0.2-0.2-0.5c-0.1-0.2-0.3-0.6-0.5-1s-0.6-1-1-1.7
					C531.5,274.9,531,274,530.6,273.3z"/>
			</g>
			<g id="XMLID_819_">
				<path id="XMLID_820_" fill="#00DCFF" d="M526.9,214.5c-0.4-0.7-0.8-1.2-1.1-1.5s-0.5-0.6-0.7-0.7c-0.2-0.1-0.4-0.1-0.5-0.1
					c-0.4,0-0.6,0-0.7-0.2c-0.1-0.1-0.1-0.2,0-0.3c0.3-0.4,0.5-0.7,0.7-1s0.3-0.5,0.4-0.6c0.1-0.2,0.1-0.3,0.2-0.3
					c0.1-0.1,0.1-0.1,0.2-0.2c0.1-0.1,0.2-0.1,0.4-0.1s0.3,0,0.3,0.1c0.1,0.1,0.1,0.2,0.2,0.4c0,0.2,0.2,0.4,0.3,0.7
					c0.2,0.3,0.4,0.8,0.7,1.4c0.3,0.6,0.8,1.4,1.4,2.4c0.7,1.1,1.2,2,1.7,2.8c0.5,0.7,0.9,1.4,1.2,1.9c0.1,0.2,0.2,0.3,0.3,0.3
					c0.1,0.1,0.2,0.1,0.3,0.1s0.2,0,0.3,0.1c0.1,0,0.1,0.1,0.2,0.1c0.1,0.1,0,0.3-0.2,0.5s-0.5,0.4-0.8,0.6c-0.5,0.3-0.8,0.4-0.9,0.4
					c-0.2,0-0.3,0-0.3-0.1c0,0,0-0.1,0-0.2c0-0.1,0-0.2,0-0.4c0-0.1,0-0.1,0-0.2s-0.1-0.2-0.2-0.5c-0.1-0.2-0.3-0.6-0.5-1
					s-0.6-1-1-1.7C527.8,216,527.3,215.1,526.9,214.5z"/>
			</g>
			<g id="XMLID_816_">
				<path id="XMLID_817_" fill="#00DCFF" d="M465.5,204.9c-0.4-0.7-0.8-1.2-1.1-1.5c-0.3-0.3-0.5-0.6-0.7-0.7c-0.2-0.1-0.4-0.1-0.5-0.1
					c-0.4,0-0.6,0-0.7-0.2c-0.1-0.1-0.1-0.2,0-0.3c0.3-0.4,0.5-0.7,0.7-1s0.3-0.5,0.4-0.6s0.1-0.3,0.2-0.3c0-0.1,0.1-0.1,0.2-0.2
					c0.1-0.1,0.2-0.1,0.4-0.1c0.2,0,0.3,0,0.3,0.1c0.1,0.1,0.1,0.2,0.1,0.4s0.2,0.4,0.3,0.7c0.2,0.3,0.4,0.8,0.7,1.4
					c0.3,0.6,0.8,1.4,1.4,2.4c0.7,1.1,1.2,2,1.7,2.8c0.5,0.7,0.9,1.4,1.2,1.9c0.1,0.2,0.2,0.3,0.3,0.3c0.1,0.1,0.2,0.1,0.3,0.1
					c0.1,0,0.2,0,0.2,0.1c0.1,0,0.1,0.1,0.2,0.1c0.1,0.1,0,0.3-0.2,0.5s-0.5,0.4-0.8,0.6c-0.5,0.3-0.8,0.4-0.9,0.4s-0.3,0-0.3-0.1
					c0,0,0-0.1,0-0.2c0-0.1,0-0.2,0-0.4c0-0.1,0-0.1,0-0.2c0-0.1-0.1-0.2-0.2-0.5c-0.1-0.2-0.3-0.6-0.5-1s-0.6-1-1-1.7
					C466.5,206.4,465.9,205.5,465.5,204.9z"/>
			</g>
			<g id="XMLID_812_">
				<path id="XMLID_813_" fill="#00DCFF" d="M413,296c-0.2-1-0.2-1.8-0.1-2.5s0.3-1.3,0.7-1.7c0.3-0.4,0.7-0.8,1-0.9
					c0.6-0.4,1.2-0.5,1.9-0.5c0.7,0,1.3,0.1,1.9,0.4s1.2,0.7,1.8,1.2c0.6,0.5,1.1,1.2,1.5,2c0.2,0.3,0.3,0.6,0.5,1s0.3,0.9,0.4,1.3
					c0.1,0.5,0.2,1,0.2,1.5s0,1.1-0.2,1.6c-0.1,0.5-0.4,1-0.7,1.4c-0.3,0.5-0.7,0.8-1.3,1.2c-0.5,0.3-1,0.4-1.6,0.3s-1.2-0.2-1.8-0.5
					c-0.6-0.3-1.1-0.6-1.6-1.1c-0.5-0.4-0.9-0.9-1.2-1.4C413.7,298.1,413.2,297,413,296z M415.6,298.2c0.2,0.2,0.4,0.5,0.6,0.8
					s0.5,0.6,0.8,0.8c0.3,0.3,0.7,0.5,1,0.7c0.4,0.2,0.7,0.3,1.1,0.3s0.8-0.1,1.2-0.3c0.5-0.3,0.8-0.7,1-1.1c0.2-0.5,0.2-1,0.2-1.5
					c-0.1-0.5-0.2-1.1-0.4-1.7c-0.2-0.6-0.5-1.1-0.8-1.6c-0.2-0.3-0.5-0.7-0.8-1.1c-0.4-0.4-0.8-0.8-1.3-1.1c-0.5-0.3-1-0.5-1.5-0.6
					s-1,0-1.5,0.3c-0.4,0.2-0.6,0.5-0.8,0.9c-0.2,0.4-0.2,0.9-0.2,1.4s0.1,1.1,0.3,1.7c0.2,0.6,0.5,1.2,0.9,1.8
					C415.3,297.8,415.4,298,415.6,298.2z"/>
			</g>
			<g id="XMLID_808_">
				<path id="XMLID_809_" fill="#00DCFF" d="M535.1,290.6c-0.2-1-0.2-1.8-0.1-2.5c0.1-0.7,0.3-1.3,0.7-1.7c0.3-0.4,0.7-0.8,1-0.9
					c0.6-0.4,1.2-0.5,1.9-0.5s1.3,0.1,1.9,0.4c0.6,0.3,1.2,0.7,1.8,1.2s1.1,1.2,1.5,2c0.2,0.3,0.3,0.6,0.5,1s0.3,0.9,0.4,1.3
					c0.1,0.5,0.2,1,0.2,1.5s0,1.1-0.2,1.6c-0.1,0.5-0.4,1-0.7,1.4c-0.3,0.5-0.7,0.8-1.3,1.2c-0.5,0.3-1,0.4-1.6,0.3s-1.2-0.2-1.8-0.5
					s-1.1-0.6-1.6-1.1c-0.5-0.4-0.9-0.9-1.2-1.4C535.8,292.7,535.3,291.5,535.1,290.6z M537.7,292.8c0.2,0.2,0.4,0.5,0.6,0.8
					c0.2,0.3,0.5,0.6,0.8,0.8c0.3,0.3,0.7,0.5,1,0.7c0.4,0.2,0.7,0.3,1.1,0.3c0.4,0,0.8-0.1,1.2-0.3c0.5-0.3,0.8-0.7,1-1.1
					c0.2-0.5,0.2-1,0.2-1.5c-0.1-0.5-0.2-1.1-0.4-1.7s-0.5-1.1-0.8-1.6c-0.2-0.3-0.5-0.7-0.8-1.1c-0.4-0.4-0.8-0.8-1.3-1.1
					c-0.5-0.3-1-0.5-1.5-0.6s-1,0-1.5,0.3c-0.4,0.2-0.6,0.5-0.8,0.9s-0.2,0.9-0.2,1.4s0.1,1.1,0.3,1.7s0.5,1.2,0.9,1.8
					C537.5,292.4,537.6,292.5,537.7,292.8z"/>
			</g>
			<g id="XMLID_804_">
				<path id="XMLID_805_" fill="#00DCFF" d="M517.4,235.8c-0.2-1-0.2-1.8-0.1-2.5c0.1-0.7,0.3-1.3,0.7-1.7c0.3-0.4,0.7-0.8,1-0.9
					c0.6-0.4,1.2-0.5,1.9-0.5s1.3,0.1,1.9,0.4c0.6,0.3,1.2,0.7,1.8,1.2s1.1,1.2,1.5,2c0.2,0.3,0.3,0.6,0.5,1s0.3,0.9,0.4,1.3
					c0.1,0.5,0.2,1,0.2,1.5s0,1.1-0.2,1.6c-0.1,0.5-0.4,1-0.7,1.4c-0.3,0.5-0.7,0.8-1.3,1.2c-0.5,0.3-1,0.4-1.6,0.3s-1.2-0.2-1.8-0.5
					s-1.1-0.6-1.6-1.1c-0.5-0.4-0.9-0.9-1.2-1.4C518.1,237.9,517.6,236.8,517.4,235.8z M520,238c0.2,0.2,0.4,0.5,0.6,0.8
					c0.2,0.3,0.5,0.6,0.8,0.8s0.7,0.5,1,0.7c0.4,0.2,0.7,0.3,1.1,0.3c0.4,0,0.8-0.1,1.2-0.3c0.5-0.3,0.8-0.7,1-1.1
					c0.2-0.5,0.2-1,0.2-1.5s-0.2-1.1-0.4-1.7c-0.2-0.6-0.5-1.1-0.8-1.6c-0.2-0.3-0.5-0.7-0.8-1.1c-0.4-0.4-0.8-0.8-1.3-1.1
					s-1-0.5-1.5-0.6s-1,0-1.5,0.3c-0.4,0.2-0.6,0.5-0.8,0.9s-0.2,0.9-0.2,1.4s0.1,1.1,0.3,1.7c0.2,0.6,0.5,1.2,0.9,1.8
					C519.8,237.6,519.9,237.8,520,238z"/>
			</g>
			<g id="XMLID_800_">
				<path id="XMLID_801_" fill="#00DCFF" d="M436.9,219.9c-0.2-1-0.2-1.8-0.1-2.5s0.3-1.3,0.7-1.7c0.3-0.4,0.7-0.8,1-0.9
					c0.6-0.4,1.2-0.5,1.9-0.5s1.3,0.1,1.9,0.4c0.6,0.3,1.2,0.7,1.8,1.2c0.6,0.5,1.1,1.2,1.5,2c0.2,0.3,0.3,0.6,0.5,1s0.3,0.9,0.4,1.3
					c0.1,0.5,0.2,1,0.2,1.5s0,1.1-0.2,1.6c-0.1,0.5-0.4,1-0.7,1.4s-0.7,0.8-1.3,1.2c-0.5,0.3-1,0.4-1.6,0.3c-0.6-0.1-1.2-0.2-1.8-0.5
					c-0.6-0.3-1.1-0.6-1.6-1.1c-0.5-0.4-0.9-0.9-1.2-1.4C437.5,222,437.1,220.9,436.9,219.9z M439.5,222.1c0.2,0.2,0.4,0.5,0.6,0.8
					s0.5,0.6,0.8,0.8c0.3,0.3,0.7,0.5,1,0.7s0.7,0.3,1.1,0.3s0.8-0.1,1.2-0.3c0.5-0.3,0.8-0.7,1-1.1c0.2-0.5,0.2-1,0.2-1.5
					c-0.1-0.5-0.2-1.1-0.4-1.7c-0.2-0.6-0.5-1.1-0.8-1.6c-0.2-0.3-0.5-0.7-0.8-1.1c-0.4-0.4-0.8-0.8-1.3-1.1s-1-0.5-1.5-0.6
					s-1,0-1.5,0.3c-0.4,0.2-0.6,0.5-0.8,0.9c-0.2,0.4-0.2,0.9-0.2,1.4s0.1,1.1,0.3,1.7c0.2,0.6,0.5,1.2,0.9,1.8
					C439.2,221.7,439.3,221.9,439.5,222.1z"/>
			</g>
			<g id="XMLID_796_">
				<path id="XMLID_797_" fill="#00DCFF" d="M421.6,257.3c-0.2-1-0.2-1.8-0.1-2.5s0.3-1.3,0.7-1.7c0.3-0.4,0.7-0.8,1-0.9
					c0.6-0.4,1.2-0.5,1.9-0.5c0.7,0,1.3,0.1,1.9,0.4c0.6,0.3,1.2,0.7,1.8,1.2c0.6,0.5,1.1,1.2,1.5,2c0.2,0.3,0.3,0.6,0.5,1
					s0.3,0.9,0.4,1.3c0.1,0.5,0.2,1,0.2,1.5s0,1.1-0.2,1.6c-0.1,0.5-0.4,1-0.7,1.4c-0.3,0.5-0.7,0.8-1.3,1.2c-0.5,0.3-1,0.4-1.6,0.3
					s-1.2-0.2-1.8-0.5c-0.6-0.3-1.1-0.6-1.6-1.1c-0.5-0.4-0.9-0.9-1.2-1.4C422.3,259.3,421.8,258.2,421.6,257.3z M424.3,259.5
					c0.2,0.2,0.4,0.5,0.6,0.8s0.5,0.5,0.8,0.8s0.7,0.5,1,0.7c0.4,0.2,0.7,0.3,1.1,0.3s0.8-0.1,1.2-0.3c0.5-0.3,0.8-0.7,1-1.1
					c0.2-0.5,0.2-1,0.2-1.5c-0.1-0.5-0.2-1.1-0.4-1.7c-0.2-0.6-0.5-1.1-0.8-1.6c-0.2-0.3-0.5-0.7-0.8-1.1c-0.4-0.4-0.8-0.8-1.3-1.1
					s-1-0.5-1.5-0.6s-1,0-1.5,0.3c-0.4,0.2-0.6,0.5-0.8,0.9c-0.2,0.4-0.2,0.9-0.2,1.4c0,0.5,0.1,1.1,0.3,1.7c0.2,0.6,0.5,1.2,0.9,1.8
					C424,259.1,424.1,259.2,424.3,259.5z"/>
			</g>
			<g id="XMLID_792_">
				<path id="XMLID_793_" fill="#00DCFF" d="M490.3,210.8c-0.2-1-0.2-1.8-0.1-2.5s0.3-1.3,0.7-1.7s0.7-0.8,1-0.9c0.6-0.4,1.2-0.5,1.9-0.5
					c0.7,0,1.3,0.1,1.9,0.4c0.6,0.3,1.2,0.7,1.8,1.2c0.6,0.5,1.1,1.2,1.5,2c0.2,0.3,0.3,0.6,0.5,1s0.3,0.9,0.4,1.3
					c0.1,0.5,0.2,1,0.2,1.5s0,1.1-0.2,1.6c-0.1,0.5-0.4,1-0.7,1.4c-0.3,0.5-0.7,0.8-1.3,1.2c-0.5,0.3-1,0.4-1.6,0.3
					c-0.6-0.1-1.2-0.2-1.8-0.5c-0.6-0.3-1.1-0.6-1.6-1.1c-0.5-0.4-0.9-0.9-1.2-1.4C490.9,212.9,490.5,211.8,490.3,210.8z M492.9,213
					c0.2,0.2,0.4,0.5,0.6,0.8s0.5,0.6,0.8,0.8c0.3,0.3,0.7,0.5,1,0.7c0.4,0.2,0.7,0.3,1.1,0.3s0.8-0.1,1.2-0.3c0.5-0.3,0.8-0.7,1-1.1
					c0.2-0.5,0.2-1,0.2-1.5c-0.1-0.5-0.2-1.1-0.4-1.7c-0.2-0.6-0.5-1.1-0.8-1.6c-0.2-0.3-0.5-0.7-0.8-1.1c-0.4-0.4-0.8-0.8-1.3-1.1
					s-1-0.5-1.5-0.6s-1,0-1.5,0.3c-0.4,0.2-0.6,0.5-0.8,0.9c-0.2,0.4-0.2,0.9-0.2,1.4s0.1,1.1,0.3,1.7c0.2,0.6,0.5,1.2,0.9,1.8
					C492.6,212.6,492.7,212.8,492.9,213z"/>
			</g>
			<g id="XMLID_788_">
				<path id="XMLID_789_" fill="#00DCFF" d="M540.7,266.1c-0.2-1-0.2-1.8-0.1-2.5c0.1-0.7,0.3-1.3,0.7-1.7c0.3-0.4,0.7-0.8,1-0.9
					c0.6-0.4,1.2-0.5,1.9-0.5s1.3,0.1,1.9,0.4c0.6,0.3,1.2,0.7,1.8,1.2s1.1,1.2,1.5,2c0.2,0.3,0.3,0.6,0.5,1s0.3,0.9,0.4,1.3
					c0.1,0.5,0.2,1,0.2,1.5s0,1.1-0.2,1.6c-0.1,0.5-0.4,1-0.7,1.4c-0.3,0.5-0.7,0.8-1.3,1.2c-0.5,0.3-1,0.4-1.6,0.3s-1.2-0.2-1.8-0.5
					s-1.1-0.6-1.6-1.1c-0.5-0.4-0.9-0.9-1.2-1.4C541.4,268.2,540.9,267,540.7,266.1z M543.3,268.3c0.2,0.2,0.4,0.5,0.6,0.8
					s0.5,0.6,0.8,0.8c0.3,0.3,0.7,0.5,1,0.7c0.4,0.2,0.7,0.3,1.1,0.3c0.4,0,0.8-0.1,1.2-0.3c0.5-0.3,0.8-0.7,1-1.1s0.2-1,0.2-1.5
					s-0.2-1.1-0.4-1.7s-0.5-1.1-0.8-1.6c-0.2-0.3-0.5-0.7-0.8-1.1c-0.4-0.4-0.8-0.8-1.3-1.1c-0.5-0.3-1-0.5-1.5-0.6s-1,0-1.5,0.3
					c-0.4,0.2-0.6,0.5-0.8,0.9s-0.2,0.9-0.2,1.4s0.1,1.1,0.3,1.7s0.5,1.2,0.9,1.8C543.1,267.9,543.2,268,543.3,268.3z"/>
			</g>
			<g id="XMLID_784_">
				<path id="XMLID_785_" fill="#00DCFF" d="M537.7,240.8c-0.2-1-0.2-1.8-0.1-2.5s0.3-1.3,0.7-1.7c0.3-0.4,0.7-0.8,1-0.9
					c0.6-0.4,1.2-0.5,1.9-0.5s1.3,0.1,1.9,0.4c0.6,0.3,1.2,0.7,1.8,1.2s1.1,1.2,1.5,2c0.2,0.3,0.3,0.6,0.5,1s0.3,0.9,0.4,1.3
					c0.1,0.5,0.2,1,0.2,1.5s0,1.1-0.2,1.6c-0.1,0.5-0.4,1-0.7,1.4c-0.3,0.5-0.7,0.8-1.3,1.2c-0.5,0.3-1,0.4-1.6,0.3
					c-0.6-0.1-1.2-0.2-1.8-0.5s-1.1-0.6-1.6-1.1s-0.9-0.9-1.2-1.4C538.3,242.9,537.9,241.8,537.7,240.8z M540.3,243
					c0.2,0.2,0.4,0.5,0.6,0.8c0.2,0.3,0.5,0.6,0.8,0.8c0.3,0.3,0.7,0.5,1,0.7c0.4,0.2,0.7,0.3,1.1,0.3c0.4,0,0.8-0.1,1.2-0.3
					c0.5-0.3,0.8-0.7,1-1.1c0.2-0.5,0.2-1,0.2-1.5c-0.1-0.5-0.2-1.1-0.4-1.7c-0.2-0.6-0.5-1.1-0.8-1.6c-0.2-0.3-0.5-0.7-0.8-1.1
					c-0.4-0.4-0.8-0.8-1.3-1.1s-1-0.5-1.5-0.6s-1,0-1.5,0.3c-0.4,0.2-0.6,0.5-0.8,0.9s-0.2,0.9-0.2,1.4s0.1,1.1,0.3,1.7
					s0.5,1.2,0.9,1.8C540,242.6,540.1,242.8,540.3,243z"/>
			</g>
			<g id="XMLID_444_">
				<circle id="XMLID_443_" fill="#00DCFF" stroke="#20264C" stroke-miterlimit="10" cx="483.4" cy="267.1" r="47.3"/>
				<rect id="XMLID_442_" x="466.9" y="321.2" fill="#3E3A39" stroke="#444466" stroke-miterlimit="10" width="4" height="3.1"/>
				<rect id="XMLID_438_" x="478.3" y="307.5" fill="#3E3A39" stroke="#444466" stroke-miterlimit="10" width="10.3" height="10.6"/>
				<rect id="XMLID_437_" x="496.4" y="321.2" fill="#3E3A39" stroke="#444466" stroke-miterlimit="10" width="4" height="3.1"/>
				<circle id="XMLID_436_" fill="currentColor" stroke="#444466" stroke-miterlimit="10" cx="501.8" cy="323.1" r="2.8"/>
				<circle id="XMLID_435_" fill="currentColor" stroke="#444466" stroke-miterlimit="10" cx="512.7" cy="321.6" r="3.3"/>
				<path id="XMLID_434_" fill="currentColor" stroke="#444466" stroke-miterlimit="10" d="M502,322.5c-0.2-0.1-0.4-0.1-0.5-0.1c-0.3-0.8-0.5-1.7-0.6-2.6c2.3-1.2,5.1-1.5,7.8-0.7
					c0.4,0.1,0.8,0.3,1.2,0.5c-0.2,1.4,0,2.8,0.4,4.1c-1.1,0.8-2.4,1.4-3.8,1.7C505.2,324.2,503.8,323.1,502,322.5z"/>
				<g id="XMLID_416_">
					
						<rect id="XMLID_432_" x="531.3" y="321.5" transform="matrix(-0.2879 0.9577 -0.9577 -0.2879 993.9709 -93.9484)" fill="currentColor" stroke="#444466" stroke-miterlimit="10" width="1.2" height="2.1"/>
					
						<rect id="XMLID_431_" x="534" y="321.5" transform="matrix(0.4084 0.9128 -0.9128 0.4084 610.678 -297.129)" fill="currentColor" stroke="#444466" stroke-miterlimit="10" width="1.2" height="2.1"/>
					<circle id="XMLID_430_" fill="currentColor" stroke="#444466" stroke-miterlimit="10" cx="529.8" cy="322.1" r="2.2"/>
					<circle id="XMLID_429_" fill="currentColor" stroke="#444466" stroke-miterlimit="10" cx="533.1" cy="323.1" r="1.1"/>
					<path id="XMLID_428_" fill="currentColor" stroke="#444466" stroke-miterlimit="10" d="M534.6,321.7c-0.1,0.7,0.4,1.4,1.1,1.4c0.9,0,1.8-0.3,2.5-1c0.4-0.5,0.7-1,0.8-1.6
						c0.1-0.7-0.4-1.4-1.1-1.4c-0.9,0-1.8,0.3-2.5,1C535,320.5,534.7,321.1,534.6,321.7z"/>
					<path id="XMLID_427_" fill="currentColor" stroke="#444466" stroke-miterlimit="10" d="M511.9,320C511.9,320.1,511.9,320.1,511.9,320c0.5,0.6,1.1,1.1,1.7,1.6
						c2.1,0.9,4.4,1.4,6.8,1.4c4.8,0,9.1-2,12.3-5.1c0.1-0.2,0.2-0.4,0.3-0.6c0.3-1.2,0.4-2.4,0.4-3.7c0-1.2-0.1-2.4-0.4-3.5
						c-2.2-1.9-5.1-3-8.2-3C517.6,307.2,511.9,312.9,511.9,320z"/>
					
						<rect id="XMLID_426_" x="535.7" y="311.1" transform="matrix(-0.2373 -0.9714 0.9714 -0.2373 360.2404 907.2209)" fill="currentColor" stroke="#444466" stroke-miterlimit="10" width="1.2" height="2.1"/>
					
						<rect id="XMLID_425_" x="538.4" y="311.4" transform="matrix(0.4556 -0.8902 0.8902 0.4556 15.2917 649.8723)" fill="currentColor" stroke="#444466" stroke-miterlimit="10" width="1.2" height="2.1"/>
					<circle id="XMLID_424_" fill="currentColor" stroke="#444466" stroke-miterlimit="10" cx="534.2" cy="312.6" r="2.2"/>
					<circle id="XMLID_423_" fill="currentColor" stroke="#444466" stroke-miterlimit="10" cx="537.5" cy="311.7" r="1.1"/>
					<path id="XMLID_422_" fill="currentColor" stroke="#444466" stroke-miterlimit="10" d="M538.9,313.2c-0.1-0.7,0.4-1.3,1.1-1.3c0.9,0,1.8,0.4,2.4,1.2c0.4,0.5,0.7,1.1,0.8,1.7
						c0.1,0.7-0.4,1.3-1.1,1.3c-0.9,0-1.8-0.4-2.4-1.2C539.3,314.4,539,313.8,538.9,313.2z"/>
					
						<rect id="XMLID_421_" x="535" y="309.8" transform="matrix(-0.6732 -0.7395 0.7395 -0.6732 666.3611 916.2174)" fill="currentColor" stroke="#444466" stroke-miterlimit="10" width="1.2" height="2.1"/>
					
						<rect id="XMLID_420_" x="537.5" y="308.7" transform="matrix(-2.578829e-02 -0.9997 0.9997 -2.578829e-02 242.3453 855.6835)" fill="currentColor" stroke="#444466" stroke-miterlimit="10" width="1.2" height="2.1"/>
					<circle id="XMLID_419_" fill="currentColor" stroke="#444466" stroke-miterlimit="10" cx="534" cy="312.2" r="2.2"/>
					<circle id="XMLID_418_" fill="currentColor" stroke="#444466" stroke-miterlimit="10" cx="536.6" cy="309.9" r="1.1"/>
					<path id="XMLID_417_" fill="currentColor" stroke="#444466" stroke-miterlimit="10" d="M538.5,310.6c-0.4-0.6-0.3-1.4,0.4-1.7c0.8-0.4,1.8-0.5,2.7-0.1c0.6,0.2,1.1,0.6,1.5,1.1
						c0.4,0.6,0.3,1.4-0.4,1.7c-0.8,0.4-1.8,0.5-2.7,0.1C539.4,311.4,538.9,311,538.5,310.6z"/>
				</g>
				<circle id="XMLID_441_" fill="currentColor" stroke="#444466" stroke-miterlimit="10" cx="465.5" cy="323.1" r="2.8"/>
				<circle id="XMLID_440_" fill="currentColor" stroke="#444466" stroke-miterlimit="10" cx="461.9" cy="333.5" r="3.3"/>
				<path id="XMLID_439_" fill="currentColor" stroke="#444466" stroke-miterlimit="10" d="M464.9,323.2c0-0.2,0-0.4,0-0.6c-0.8-0.5-1.6-0.8-2.4-1.1c-1.6,2-2.5,4.7-2.1,7.5
					c0.1,0.4,0.1,0.8,0.3,1.3c1.4,0.1,2.7,0.5,3.9,1.1c1-1,1.9-2.1,2.4-3.4C465.9,326.7,465.1,325,464.9,323.2z"/>
				<g id="XMLID_376_">
					
						<rect id="XMLID_415_" x="480.3" y="329.9" transform="matrix(-0.357 -0.9341 0.9341 -0.357 343.4736 898.3249)" fill="currentColor" stroke="#444466" stroke-miterlimit="10" width="1.2" height="2.1"/>
					
						<rect id="XMLID_414_" x="483" y="329.8" transform="matrix(0.3407 -0.9402 0.9402 0.3407 7.7576 672.8141)" fill="currentColor" stroke="#444466" stroke-miterlimit="10" width="1.2" height="2.1"/>
					<circle id="XMLID_413_" fill="currentColor" stroke="#444466" stroke-miterlimit="10" cx="478.9" cy="331.7" r="2.2"/>
					<circle id="XMLID_412_" fill="currentColor" stroke="#444466" stroke-miterlimit="10" cx="482.1" cy="330.4" r="1.1"/>
					<path id="XMLID_411_" fill="currentColor" stroke="#444466" stroke-miterlimit="10" d="M483.7,331.7c-0.2-0.7,0.3-1.4,1-1.4c0.9-0.1,1.8,0.2,2.5,0.8c0.5,0.4,0.8,1,1,1.6
						c0.2,0.7-0.3,1.4-1,1.4c-0.9,0.1-1.8-0.2-2.5-0.8C484.2,332.8,483.9,332.3,483.7,331.7z"/>
					<path id="XMLID_410_" fill="currentColor" stroke="#444466" stroke-miterlimit="10" d="M461.2,335.1L461.2,335.1c0.5-0.6,1-1.2,1.6-1.7c2-1,4.3-1.7,6.7-1.9
						c4.8-0.3,9.2,1.3,12.6,4.2c0.1,0.2,0.2,0.4,0.3,0.5c0.4,1.2,0.6,2.4,0.7,3.7c0.1,1.2,0,2.4-0.1,3.5c-2.1,2-4.9,3.4-8,3.6
						C467.9,347.5,461.7,342.2,461.2,335.1z"/>
					
						<rect id="XMLID_409_" x="485.4" y="340" transform="matrix(-0.1658 0.9862 -0.9862 -0.1658 902.9464 -81.7303)" fill="currentColor" stroke="#444466" stroke-miterlimit="10" width="1.2" height="2.1"/>
					
						<rect id="XMLID_408_" x="488.1" y="339.6" transform="matrix(0.5194 0.8545 -0.8545 0.5194 525.9916 -253.8689)" fill="currentColor" stroke="#444466" stroke-miterlimit="10" width="1.2" height="2.1"/>
					<circle id="XMLID_407_" fill="currentColor" stroke="#444466" stroke-miterlimit="10" cx="483.9" cy="340.8" r="2.2"/>
					<circle id="XMLID_406_" fill="currentColor" stroke="#444466" stroke-miterlimit="10" cx="487.4" cy="341.4" r="1.1"/>
					<path id="XMLID_405_" fill="currentColor" stroke="#444466" stroke-miterlimit="10" d="M488.7,339.8c-0.1,0.7,0.5,1.3,1.2,1.2c0.9-0.1,1.7-0.6,2.3-1.3c0.4-0.5,0.6-1.1,0.6-1.7
						c0.1-0.7-0.5-1.3-1.2-1.2c-0.9,0.1-1.7,0.6-2.3,1.3C488.9,338.6,488.7,339.2,488.7,339.8z"/>
					
						<rect id="XMLID_404_" x="484.9" y="341.3" transform="matrix(-0.6174 0.7867 -0.7867 -0.6174 1054.5975 171.6775)" fill="currentColor" stroke="#444466" stroke-miterlimit="10" width="1.2" height="2.1"/>
					
						<rect id="XMLID_403_" x="487.5" y="342.3" transform="matrix(4.726047e-02 0.9989 -0.9989 4.726047e-02 808.0075 -160.4486)" fill="currentColor" stroke="#444466" stroke-miterlimit="10" width="1.2" height="2.1"/>
					<circle id="XMLID_396_" fill="currentColor" stroke="#444466" stroke-miterlimit="10" cx="483.8" cy="341.2" r="2.2"/>
					<circle id="XMLID_390_" fill="currentColor" stroke="#444466" stroke-miterlimit="10" cx="486.5" cy="343.3" r="1.1"/>
					<path id="XMLID_384_" fill="currentColor" stroke="#444466" stroke-miterlimit="10" d="M488.4,342.5c-0.4,0.6-0.2,1.4,0.5,1.7c0.8,0.3,1.8,0.3,2.7-0.1c0.6-0.3,1.1-0.7,1.4-1.2
						c0.4-0.6,0.2-1.4-0.5-1.7c-0.8-0.3-1.8-0.3-2.7,0.1C489.2,341.6,488.8,342,488.4,342.5z"/>
				</g>
				<path id="XMLID_368_" fill="currentColor" stroke="#444466" stroke-miterlimit="10" d="M482.3,219.8c-25.6,0.6-46.3,21.9-46.2,47.5c0.1,21.1,14,38.9,33.1,45
					c1.9,0.6,3.9,0.4,5.7-0.3c2.6-1.1,5.5-1.7,8.5-1.7s5.9,0.6,8.5,1.7c2,0.8,4.2,0.9,6.2,0.2c19-6.2,32.7-24,32.7-45
					C530.7,240.6,508.9,219.2,482.3,219.8z"/>
				<path id="XMLID_362_" fill="#FFFFFF" d="M506.4,244.8c-2.3-4.2-5.4-7.8-9-10.6c3.1-0.5,6.1-0.7,9.2-0.8c3.6,3,6.5,6.9,8.6,11.3
					C512.2,244.6,509.3,244.6,506.4,244.8z"/>
				<path id="XMLID_433_" fill="currentColor" stroke="#444466" stroke-miterlimit="10" d="M497.2,322.3c0-0.9,0.1-1.7,0.3-2.5c-0.2-0.9-0.4-1.8-0.7-2.6c-1.9-0.8-4-1.5-6.1-1.9
					c-1.2,1.1-3.9,1.9-7,1.9s-5.8-0.8-7-1.9c-2.1,0.5-4.1,1.1-6.1,1.9c-0.3,0.8-0.6,1.7-0.7,2.6c0.2,0.8,0.3,1.7,0.3,2.5
					c0,1.1-0.2,2.1-0.4,3.1c0.4,3.1,1.6,5.9,3.4,8.2c2.9,2.3,6.6,3.6,10.5,3.6s7.6-1.3,10.5-3.6c1.8-2.3,3-5.1,3.4-8.2
					C497.4,324.4,497.2,323.3,497.2,322.3z"/>
				<ellipse id="XMLID_676_" fill="#727272" cx="483.7" cy="358" rx="15.6" ry="3.5"/>
			</g>
		</g>
	</symbol>
	<symbol id="error"  stroke="none" fill="none" fill-rule="evenodd" viewBox="420.2 208.8 120.6 142.5">
		<g id="XMLID_524_">
			<rect id="XMLID_650_" x="464.3" y="310.6" fill="#3E3A39" stroke="#484848" stroke-miterlimit="10" width="4" height="3.1"/>
			<rect id="XMLID_643_" x="475.7" y="302.5" fill="#3E3A39" stroke="#484848" stroke-miterlimit="10" width="10.3" height="5"/>
			<rect id="XMLID_642_" x="493.8" y="310.6" fill="#3E3A39" stroke="#484848" stroke-miterlimit="10" width="4" height="3.1"/>
			<g id="XMLID_518_">
				<circle id="XMLID_675_" fill="currentColor" stroke="#484848" stroke-miterlimit="10" cx="480.8" cy="256.5" r="47.3"/>
				<circle id="XMLID_641_" fill="currentColor" stroke="#484848" stroke-miterlimit="10" cx="499.2" cy="312.6" r="2.8"/>
				<path id="XMLID_639_" fill="currentColor" stroke="#484848" stroke-miterlimit="10" d="M499.8,312.4c-0.1-0.2-0.1-0.4-0.2-0.5c0.5-0.7,1.1-1.4,1.8-2c2.3,1.2,4.2,3.3,5,6
					c0.1,0.4,0.2,0.8,0.3,1.3c-1.2,0.7-2.3,1.6-3.1,2.7c-1.3-0.4-2.6-1.2-3.6-2.1C500.4,316,500.3,314.2,499.8,312.4z"/>
				<g id="XMLID_462_">
					<g id="XMLID_631_">
						<rect id="XMLID_636_" x="522.7" y="309.2" transform="matrix(-0.6734 -0.7393 0.7393 -0.6734 646.3278 906.0803)" fill="currentColor" stroke="#484848" stroke-miterlimit="10" width="1.2" height="2.1"/>
						<rect id="XMLID_635_" x="524.6" y="307" transform="matrix(-0.7165 -0.6976 0.6976 -0.7165 686.5549 895.2152)" fill="currentColor" stroke="#484848" stroke-miterlimit="10" width="1.2" height="2.1"/>
						<circle id="XMLID_634_" fill="currentColor" stroke="#484848" stroke-miterlimit="10" cx="521.7" cy="311.7" r="2.2"/>
						<circle id="XMLID_633_" fill="currentColor" stroke="#484848" stroke-miterlimit="10" cx="524.2" cy="309.3" r="1.1"/>
						<path id="XMLID_632_" fill="currentColor" stroke="#484848" stroke-miterlimit="10" d="M526.1,308.4c-0.7-0.1-1.2-0.8-0.9-1.5c0.3-0.8,0.9-1.6,1.8-2c0.6-0.3,1.2-0.3,1.8-0.2
							c0.7,0.1,1.2,0.8,0.9,1.5c-0.3,0.8-0.9,1.6-1.8,2C527.3,308.5,526.6,308.5,526.1,308.4z"/>
					</g>
					<circle id="XMLID_640_" fill="currentColor" stroke="#484848" stroke-miterlimit="10" cx="506.5" cy="319.5" r="3.3"/>
					<path id="XMLID_638_" fill="currentColor" stroke="#484848" stroke-miterlimit="10" d="M506.4,321.3L506.4,321.3c0.2-0.8,0.5-1.5,0.8-2.2c1.5-1.7,3.4-3.2,5.5-4.2
						c4.3-2.1,9.1-2.2,13.3-0.7c0.2,0.1,0.3,0.2,0.5,0.4c0.8,1,1.4,2,2,3.2c0.5,1.1,0.9,2.2,1.2,3.3c-1.2,2.6-3.3,4.9-6.1,6.3
						C517.1,330.4,509.4,327.7,506.4,321.3z"/>
					<g id="XMLID_669_">
						<rect id="XMLID_674_" x="531.1" y="316.7" transform="matrix(0.2057 0.9786 -0.9786 0.2057 733.3191 -267.8879)" fill="currentColor" stroke="#484848" stroke-miterlimit="10" width="1.2" height="2.1"/>
						<rect id="XMLID_673_" x="534" y="316.3" transform="matrix(0.1912 0.9816 -0.9816 0.1912 743.8777 -267.9929)" fill="currentColor" stroke="#484848" stroke-miterlimit="10" width="1.2" height="2.1"/>
						<circle id="XMLID_672_" fill="currentColor" stroke="#484848" stroke-miterlimit="10" cx="529.7" cy="318.4" r="2.2"/>
						<circle id="XMLID_671_" fill="currentColor" stroke="#484848" stroke-miterlimit="10" cx="533.1" cy="317.7" r="1.1"/>
						<path id="XMLID_670_" fill="currentColor" stroke="#484848" stroke-miterlimit="10" d="M534.9,316.6c-0.3,0.6,0,1.4,0.7,1.6c0.9,0.2,1.8,0.1,2.6-0.4c0.5-0.4,0.9-0.8,1.2-1.4
							s0-1.4-0.7-1.6c-0.9-0.2-1.8-0.1-2.6,0.4C535.5,315.6,535.1,316.1,534.9,316.6z"/>
					</g>
					<g id="XMLID_663_">
						<rect id="XMLID_668_" x="531.1" y="318.1" transform="matrix(-0.2876 0.9578 -0.9578 -0.2876 990.3281 -98.3099)" fill="currentColor" stroke="#484848" stroke-miterlimit="10" width="1.2" height="2.1"/>
						<rect id="XMLID_667_" x="533.9" y="319" transform="matrix(-0.1918 0.9814 -0.9814 -0.1918 951.1306 -143.0945)" fill="currentColor" stroke="#484848" stroke-miterlimit="10" width="1.2" height="2.1"/>
						<circle id="XMLID_666_" fill="currentColor" stroke="#484848" stroke-miterlimit="10" cx="529.7" cy="318.7" r="2.2"/>
						<circle id="XMLID_665_" fill="currentColor" stroke="#484848" stroke-miterlimit="10" cx="533" cy="319.8" r="1.1"/>
						<path id="XMLID_664_" fill="currentColor" stroke="#484848" stroke-miterlimit="10" d="M535,319.4c-0.5,0.5-0.5,1.3,0.1,1.7c0.7,0.5,1.7,0.8,2.6,0.6c0.6-0.1,1.2-0.4,1.6-0.8
							c0.5-0.5,0.5-1.3-0.1-1.7c-0.7-0.5-1.7-0.8-2.6-0.6C536,318.7,535.5,319,535,319.4z"/>
					</g>
				</g>
				<path id="XMLID_630_" fill="currentColor" stroke="#484848" stroke-miterlimit="10" d="M494.6,311.7c0-0.9,0.1-1.7,0.3-2.5c-0.2-0.9-0.4-1.8-0.7-2.6c-1.9-0.8-4-1.5-6.1-1.9
					c-1.2,1.1-3.9,1.9-7,1.9s-5.8-0.8-7-1.9c-2.1,0.5-4.1,1.1-6.1,1.9c-0.3,0.8-0.6,1.7-0.7,2.6c0.2,0.8,0.3,1.7,0.3,2.5
					c0,1.1-0.2,2.1-0.4,3.1c0.4,3.1,1.6,5.9,3.4,8.2c2.9,2.3,6.6,3.6,10.5,3.6s7.6-1.3,10.5-3.6c1.8-2.3,3-5.1,3.4-8.2
					C494.8,313.9,494.6,312.8,494.6,311.7z"/>
				<circle id="XMLID_649_" fill="currentColor" stroke="#484848" stroke-miterlimit="10" cx="462.9" cy="312.6" r="2.8"/>
				<path id="XMLID_647_" fill="currentColor" stroke="#484848" stroke-miterlimit="10" d="M462.4,312.3c0.1-0.2,0.2-0.3,0.2-0.5c-0.4-0.8-0.9-1.5-1.5-2.2c-2.5,0.9-4.5,2.8-5.6,5.4
					c-0.2,0.4-0.3,0.8-0.4,1.2c1.2,0.8,2.1,1.8,2.8,3c1.4-0.3,2.7-0.9,3.8-1.7C461.4,315.8,461.6,314,462.4,312.3z"/>
				<g id="XMLID_463_">
					<rect id="XMLID_629_" x="437.2" y="309.1" transform="matrix(0.6638 -0.7479 0.7479 0.6638 -84.796 431.7072)" fill="currentColor" stroke="#484848" stroke-miterlimit="10" width="1.2" height="2.1"/>
					<rect id="XMLID_628_" x="435.4" y="306.8" transform="matrix(0.8087 -0.5883 0.5883 0.8087 -97.693 315.3881)" fill="currentColor" stroke="#484848" stroke-miterlimit="10" width="1.2" height="2.1"/>
					<circle id="XMLID_627_" fill="currentColor" stroke="#484848" stroke-miterlimit="10" cx="439.5" cy="311.5" r="2.2"/>
					<circle id="XMLID_626_" fill="currentColor" stroke="#484848" stroke-miterlimit="10" cx="436.9" cy="309.2" r="1.1"/>
					<path id="XMLID_625_" fill="currentColor" stroke="#484848" stroke-miterlimit="10" d="M435.2,308c0.7,0,1.3-0.6,1.1-1.3c-0.2-0.9-0.7-1.7-1.5-2.2c-0.6-0.3-1.2-0.5-1.8-0.5
						c-0.7,0-1.3,0.6-1.1,1.3c0.2,0.9,0.7,1.7,1.5,2.2C434,307.9,434.6,308.1,435.2,308z"/>
					<circle id="XMLID_648_" fill="currentColor" stroke="#484848" stroke-miterlimit="10" cx="454.7" cy="319.3" r="3.3"/>
					<path id="XMLID_646_" fill="currentColor" stroke="#484848" stroke-miterlimit="10" d="M454.8,321L454.8,321c-0.2-0.8-0.5-1.5-0.9-2.2c-1.5-1.7-3.4-3.1-5.6-4.1
						c-4.3-2-9.1-2.1-13.3-0.5c-0.2,0.1-0.3,0.2-0.5,0.4c-0.7,1-1.4,2-1.9,3.2c-0.5,1.1-0.9,2.2-1.1,3.3c1.2,2.6,3.4,4.9,6.2,6.2
						C444.2,330.3,451.9,327.5,454.8,321z"/>
					<rect id="XMLID_662_" x="428.8" y="316.7" transform="matrix(-0.193 0.9812 -0.9812 -0.193 824.109 -42.2883)" fill="currentColor" stroke="#484848" stroke-miterlimit="10" width="1.2" height="2.1"/>
					<rect id="XMLID_661_" x="425.9" y="316.4" transform="matrix(-0.1205 0.9927 -0.9927 -0.1205 793.0583 -67.6145)" fill="currentColor" stroke="#484848" stroke-miterlimit="10" width="1.2" height="2.1"/>
					<circle id="XMLID_660_" fill="currentColor" stroke="#484848" stroke-miterlimit="10" cx="431.5" cy="318.3" r="2.2"/>
					<circle id="XMLID_659_" fill="currentColor" stroke="#484848" stroke-miterlimit="10" cx="428.1" cy="317.7" r="1.1"/>
					<path id="XMLID_658_" fill="currentColor" stroke="#484848" stroke-miterlimit="10" d="M426.3,316.7c0.3,0.6,0.1,1.4-0.6,1.6c-0.9,0.3-1.8,0.2-2.7-0.3c-0.6-0.3-1-0.8-1.3-1.3
						c-0.3-0.6-0.1-1.4,0.6-1.6c0.9-0.3,1.8-0.2,2.7,0.3C425.6,315.8,426,316.2,426.3,316.7z"/>
						<rect id="XMLID_656_" x="428.9" y="318.1" transform="matrix(0.2999 0.954 -0.954 0.2999 605.1862 -186.2574)" fill="currentColor" stroke="#484848" stroke-miterlimit="10" width="1.2" height="2.1"/>
						<rect id="XMLID_655_" x="426" y="318.9" transform="matrix(0.1078 0.9942 -0.9942 0.1078 698.7258 -138.6524)" fill="currentColor" stroke="#484848" stroke-miterlimit="10" width="1.2" height="2.1"/>
					<circle id="XMLID_654_" fill="currentColor" stroke="#484848" stroke-miterlimit="10" cx="431.5" cy="318.7" r="2.2"/>
					<circle id="XMLID_653_" fill="currentColor" stroke="#484848" stroke-miterlimit="10" cx="428.2" cy="319.7" r="1.1"/>
					<path id="XMLID_652_" fill="currentColor" stroke="#484848" stroke-miterlimit="10" d="M426.2,319.3c0.5,0.5,0.4,1.4-0.2,1.7c-0.8,0.5-1.7,0.6-2.7,0.4c-0.6-0.2-1.1-0.5-1.5-1
						c-0.5-0.5-0.4-1.4,0.2-1.7c0.8-0.5,1.7-0.6,2.7-0.4C425.3,318.5,425.8,318.8,426.2,319.3z"/>
				</g>
			</g>
			<g id="XMLID_623_">
				<path id="XMLID_22_" fill="currentColor" d="M480.8,304.4c-18.6,0-33.7-15.1-33.7-33.7c0-5.4,1.2-10.5,3.7-15.3l0.1-0.2l0.2-0.1
					c9.4-3.9,19.5-5.9,29.8-5.9s20.3,2,29.8,5.9l0.2,0.1l0.1,0.2c2.4,4.8,3.7,9.9,3.7,15.3C514.5,289.3,499.4,304.4,480.8,304.4z"/>
				<g id="XMLID_18_">
					<path id="XMLID_19_" fill="#666666" d="M480.8,249.7c10.5,0,20.5,2.1,29.6,5.9c2.3,4.5,3.6,9.6,3.6,15.1c0,18.3-14.9,33.2-33.2,33.2
						c-18.3,0-33.2-14.9-33.2-33.2c0-5.4,1.3-10.5,3.6-15.1C460.3,251.8,470.3,249.7,480.8,249.7 M480.8,248.7c-10.4,0-20.5,2-30,6
						l-0.3,0.1l-0.2,0.3c-2.5,4.8-3.7,10.1-3.7,15.5c0,18.9,15.3,34.2,34.2,34.2s34.2-15.3,34.2-34.2c0-5.4-1.3-10.7-3.7-15.5
						l-0.2-0.3l-0.3-0.1C501.3,250.7,491.2,248.7,480.8,248.7L480.8,248.7z"/>
				</g>
			</g>
			<ellipse id="XMLID_651_" fill="#B3B3B3" cx="481.1" cy="347.5" rx="15.6" ry="3.5"/>
			<path id="XMLID_622_" fill="#141432" d="M503.9,253.2c-7.3-2.3-15-3.5-23.1-3.5c-8,0-15.8,1.2-23.1,3.5c-3.7,4.8-5.8,10.9-5.8,17.4
				c0,16,12.9,28.9,28.9,28.9s28.9-12.9,28.9-28.9C509.7,264.1,507.6,258.1,503.9,253.2z"/>
			<g id="XMLID_517_">
				<g id="XMLID_584_">
					<path id="XMLID_585_" opacity="0.7" fill="#FFFFFF" stroke="none" d="M487,276.4c0.1,0.2,0.3,0.3,0.4,0.5h6.5c0.2-0.2,0.4-0.3,0.5-0.5H487z"/>
					<path id="XMLID_589_" opacity="0.7" fill="#FFFFFF" stroke="none" d="M486.5,275.6c0.1,0.2,0.2,0.3,0.3,0.5h8c0.1-0.2,0.3-0.3,0.4-0.5H486.5z"/>
					<path id="XMLID_590_" opacity="0.7" fill="#FFFFFF" stroke="none" d="M487.7,277.3c0.1,0.2,0.3,0.3,0.5,0.5h4.5c0.2-0.2,0.5-0.3,0.7-0.5H487.7z"/>
					<path id="XMLID_591_" opacity="0.7" fill="#FFFFFF" stroke="none" d="M485.8,274c0,0.1,0.1,0.2,0.1,0.3h9.9c0-0.2,0-0.3,0-0.5h-10C485.8,273.9,485.8,273.9,485.8,274z"/>
					<path id="XMLID_592_" opacity="0.7" fill="#FFFFFF" stroke="none" d="M485.6,273c0,0.2,0.1,0.3,0.1,0.5h10.1c0-0.2-0.1-0.3-0.2-0.5H485.6z"/>
					<path id="XMLID_593_" opacity="0.7" fill="#FFFFFF" stroke="none" d="M486.1,274.7c0.1,0.2,0.1,0.3,0.2,0.5h9.1l0,0c0.1-0.1,0.2-0.3,0.2-0.4h-9.5V274.7z"/>
					<path id="XMLID_594_" opacity="0.7" fill="#FFFFFF" stroke="none" d="M488.6,278.2c0.1,0.1,0.2,0.2,0.2,0.2c0.1,0.1,0.3,0.2,0.4,0.3h1.7c0.4-0.1,0.8-0.3,1.1-0.5H488.6z"/>
					<path id="XMLID_595_" opacity="0.7" fill="#FFFFFF" stroke="none" d="M485.4,272.1c0,0.2,0,0.3,0.1,0.5h10c-0.1-0.2-0.1-0.3-0.2-0.5H485.4z"/>
					<path id="XMLID_596_" opacity="0.7" fill="#FFFFFF" stroke="none" d="M485.4,271.2c0,0.2,0,0.3,0,0.5h9.7c-0.1-0.2-0.2-0.3-0.2-0.5H485.4z"/>
					<path id="XMLID_597_" opacity="0.7" fill="#FFFFFF" stroke="none" d="M486,267.8v0.1c0,0.1-0.1,0.3-0.1,0.4h6.3c-0.2-0.2-0.5-0.3-0.7-0.5H486z"/>
					<path id="XMLID_598_" opacity="0.7" fill="#FFFFFF" stroke="none" d="M486.7,266.9c-0.2,0.1-0.3,0.3-0.5,0.5h4.5c-0.4-0.2-0.8-0.3-1.2-0.5H486.7z"/>
					<path id="XMLID_599_" opacity="0.7" fill="#FFFFFF" stroke="none" d="M485.7,268.6c0,0.2-0.1,0.3-0.1,0.5h7.6c-0.2-0.2-0.3-0.3-0.5-0.5H485.7z"/>
					<path id="XMLID_600_" opacity="0.7" fill="#FFFFFF" stroke="none" d="M485.4,270.4c0,0.2,0,0.3,0,0.5h9.2c-0.1-0.2-0.2-0.3-0.3-0.5H485.4z"/>
					<path id="XMLID_601_" opacity="0.7" fill="#FFFFFF" stroke="none" d="M485.5,269.5c0,0.2-0.1,0.3-0.1,0.5h8.5c-0.1-0.2-0.3-0.3-0.4-0.5H485.5z"/>
				</g>
				<g id="XMLID_586_">
					<path id="XMLID_614_" opacity="0.7" fill="#FFFFFF" stroke="none" d="M474.6,276.4c-0.1,0.2-0.3,0.3-0.4,0.5h-6.5c-0.2-0.2-0.4-0.3-0.5-0.5H474.6z"/>
					<path id="XMLID_613_" opacity="0.7" fill="#FFFFFF" stroke="none" d="M475.1,275.6c-0.1,0.2-0.2,0.3-0.3,0.5h-8c-0.1-0.2-0.3-0.3-0.4-0.5H475.1z"/>
					<path id="XMLID_612_" opacity="0.7" fill="#FFFFFF" stroke="none" d="M473.9,277.3c-0.1,0.2-0.3,0.3-0.5,0.5h-4.5c-0.2-0.2-0.5-0.3-0.7-0.5H473.9z"/>
					<path id="XMLID_611_" opacity="0.7" fill="#FFFFFF" stroke="none" d="M475.8,274c0,0.1-0.1,0.2-0.1,0.3h-9.9c0-0.2,0-0.3,0-0.5h10C475.8,273.9,475.8,273.9,475.8,274z"/>
					<path id="XMLID_610_" opacity="0.7" fill="#FFFFFF" stroke="none" d="M476.1,273c0,0.2-0.1,0.3-0.1,0.5h-10.1c0-0.2,0.1-0.3,0.2-0.5H476.1z"/>
					<path id="XMLID_609_" opacity="0.7" fill="#FFFFFF" stroke="none" d="M475.5,274.7c-0.1,0.2-0.1,0.3-0.2,0.5h-9.1l0,0c-0.1-0.1-0.2-0.3-0.2-0.4h9.5V274.7z"/>
					<path id="XMLID_608_" opacity="0.7" fill="#FFFFFF" stroke="none" d="M473,278.2c-0.1,0.1-0.2,0.2-0.2,0.2c-0.1,0.1-0.3,0.2-0.4,0.3h-1.7c-0.4-0.1-0.8-0.3-1.1-0.5H473z"/>
					<path id="XMLID_607_" opacity="0.7" fill="#FFFFFF" stroke="none" d="M476.2,272.1c0,0.2,0,0.3-0.1,0.5h-10c0.1-0.2,0.1-0.3,0.2-0.5H476.2z"/>
					<path id="XMLID_606_" opacity="0.7" fill="#FFFFFF" stroke="none" d="M476.3,271.2c0,0.2,0,0.3,0,0.5h-9.7c0.1-0.2,0.2-0.3,0.2-0.5H476.3z"/>
					<path id="XMLID_605_" opacity="0.7" fill="#FFFFFF" stroke="none" d="M475.7,267.8v0.1c0,0.1,0.1,0.3,0.1,0.4h-6.3c0.2-0.2,0.5-0.3,0.7-0.5H475.7z"/>
					<path id="XMLID_604_" opacity="0.7" fill="#FFFFFF" stroke="none" d="M475,266.9c0.2,0.1,0.3,0.3,0.5,0.5H471c0.4-0.2,0.8-0.3,1.2-0.5H475z"/>
					<path id="XMLID_603_" opacity="0.7" fill="#FFFFFF" stroke="none" d="M475.9,268.6c0,0.2,0.1,0.3,0.1,0.5h-7.6c0.2-0.2,0.3-0.3,0.5-0.5H475.9z"/>
					<path id="XMLID_602_" opacity="0.7" fill="#FFFFFF" stroke="none" d="M476.2,270.4c0,0.2,0,0.3,0,0.5H467c0.1-0.2,0.2-0.3,0.3-0.5H476.2z"/>
					<path id="XMLID_588_" opacity="0.7" fill="#FFFFFF" stroke="none" d="M476.1,269.5c0,0.2,0.1,0.3,0.1,0.5h-8.5c0.1-0.2,0.3-0.3,0.4-0.5H476.1z"/>
				</g>
				<g id="XMLID_484_">
					<path id="XMLID_516_" opacity="0.7" fill="#FFFFFF" stroke="none" d="M477.8,289.5c-0.5,0.1-1,0.2-1.4,0.3c-0.1,0-0.3,0.1-0.4,0.1h11.3c-0.1-0.1-0.3-0.1-0.4-0.2c-0.2-0.1-0.4-0.2-0.7-0.3L477.8,289.5L477.8,289.5z"/>
					<path id="XMLID_519_" opacity="0.7" fill="#FFFFFF" stroke="none" d="M473.5,291.4c0.2-0.1,0.5-0.1,0.8-0.2c0.1,0,0.1,0,0.2,0h-1.4c-0.2,0.1-0.4,0.2-0.4,0.2l0.1,0.2C472.8,291.6,473.1,291.5,473.5,291.4z"/>
					<path id="XMLID_520_" opacity="0.7" fill="#FFFFFF" stroke="none" d="M483.9,291.4c0.5,0,0.9,0.1,1.3,0.1s0.8,0,1.2,0.1c0.4,0,0.7,0,1,0s0.6,0,0.8,0c0.5,0,0.8,0,0.8,0l0.1-0.2c0,0-0.1-0.1-0.2-0.2h-6.2C483.1,291.3,483.5,291.3,483.9,291.4z"/>
					<path id="XMLID_521_" opacity="0.7" fill="#FFFFFF" stroke="none" d="M482.6,288.9c-0.5,0-1.1,0.1-1.6,0.1c-0.1,0-0.2,0-0.4,0h4.3c-0.2-0.1-0.5-0.1-0.8-0.1C483.7,288.9,483.1,288.9,482.6,288.9z"/>
					<path id="XMLID_522_" opacity="0.7" fill="#FFFFFF" stroke="none" d="M474.9,290.3c-0.3,0.1-0.5,0.2-0.8,0.3c-0.1,0.1-0.2,0.1-0.3,0.2h14.8c-0.2-0.2-0.4-0.3-0.6-0.5H474.9z"/>
				</g>
			</g>
			<path id="XMLID_621_" opacity="0.4" fill="#FFFFFF" enable-background="new" d="M454.8,233.8c1.8-3.5,4.3-6.6,7.3-9c-2.6-0.3-5.1-0.5-7.6-0.5c-2.9,2.6-5.3,5.9-6.8,9.6
				C450,233.8,452.4,233.7,454.8,233.8z"/>
		</g>
	</symbol>
</svg>
