<?xml version="1.0" encoding="utf-8"?>
<!-- Generator: Adobe Illustrator 19.0.0, SVG Export Plug-In . SVG Version: 6.00 Build 0)  -->
<svg version="1.1" id="图层_1" xmlns="http://www.w3.org/2000/svg" xmlns:xlink="http://www.w3.org/1999/xlink" x="0px" y="0px"
	 viewBox="381 -66.9 981 273.9" style="enable-background:new 381 -66.9 981 273.9;" xml:space="preserve">
<style type="text/css">
	.st0{fill:#FFFFFF;}
	.st1{fill:#D01219;}
	.st2{fill:#F7E0D2;}
	.st3{fill:#FBEEE5;}
	.st4{fill:#FAE9DF;}
	.st5{fill:#F0D4C6;}
	.st6{fill:#FAE3D5;}
	.st7{fill:#F5E3D9;}
	.st8{fill:#F9E4D6;}
	.st9{fill:#FCF1E8;}
	.st10{fill:#EBCFC2;}
	.st11{fill:#FDFDFA;}
	.st12{fill:#FAE7E0;}
	.st13{fill:#F8E3D7;}
	.st14{fill:#FAEEE5;}
	.st15{fill:#F3D4C4;}
	.st16{fill:#FBECE1;}
	.st17{fill:#FDE9DD;}
	.st18{fill:#FBE7DA;}
	.st19{fill:#FAF3EE;}
	.st20{fill:#FDFCFA;}
	.st21{fill:#FDFBF7;}
	.st22{fill:#FEFEFE;}
	.st23{fill:#FCFBF9;}
	.st24{fill:#FCFAF5;}
	.st25{fill:#FCFAF6;}
	.st26{fill:#FCF9F2;}
	.st27{fill:#FCFBF7;}
	.st28{fill:#FBEAE1;}
	.st29{fill:#FCF9F4;}
	.st30{fill:#FDFCF6;}
	.st31{fill:#FDFDFC;}
	.st32{fill:#FDF7F1;}
	.st33{fill:#E4C7B8;}
	.st34{fill:#FBFAF6;}
	.st35{fill:#F9E0D3;}
	.st36{fill:#F9E4D9;}
	.st37{fill:#FDFCFB;}
	.st38{fill:#FCEFE7;}
	.st39{fill:#FCFDFC;}
	.st40{fill:#FBFAF4;}
	.st41{fill:#FDFDFD;}
</style>
<path id="XMLID_8_" class="st0" d="M979.9,140c-14.9,0-27.1,11.6-27.1,26c0,14.3,12.1,26,27.1,26c14.9,0,27.1-11.6,27.1-26
	C1006.9,151.6,994.8,140,979.9,140z M979.9,188.4c-8.5,0-15.5-10.1-15.5-22.5s6.9-22.5,15.5-22.5c8.5,0,15.5,10.1,15.5,22.5
	S988.4,188.4,979.9,188.4z"/>
<path id="XMLID_38_" class="st1" d="M650.8,36.5c-1.1-4.4-1.6-9.1-4.8-12.7l0,0c-0.1-0.9-0.1-1.9-0.2-2.8c-0.5-1.3-0.9-2.9-1.9-3.8
	l0,0c0-0.4-0.5-0.9-0.7-1.3c-0.1-0.2-0.2-0.4-0.3-0.6c-0.4-1-0.9-2.1-1.4-3.1c-1.6-4.6-3.5-9-6.7-12.7c-0.3-0.6-0.5-1.3-0.8-1.9
	c-0.3-0.9-0.5-1.8-1.2-2.5l0,0c-1.5-1.9-2-4.7-4.5-5.9c0.2-1-0.6-1.6-1.5-2.2c-5.4-5-9.1-11.6-14.9-16.2c-0.7-0.9-1.4-1.8-2.1-2.7
	c-1.6-2.9-4.6-4.3-6.8-6.7c-2.6-0.5-4-3.7-7-3.4c-0.1-0.1-0.1-0.2-0.2-0.2c0-0.2-0.1-0.4-0.1-0.6c-1.6-0.6-3-1.6-4.2-2.9
	c-1.6-1-3.2-1.9-4.8-2.9c-2.7-1.3-5.4-2.5-8.1-3.8c-1.6-0.9-3.3-1.8-5-2.7c-0.3-0.3-0.7-0.6-1.1-0.7c-2.6-0.8-5.1-1.5-7.7-2.3
	c-0.1,0.1-0.2,0.2-0.3,0.3c0.1-0.1,0.2-0.2,0.3-0.3c-3.9-1.7-7.8-3.4-12-3.8c-4.8-1.6-9.8-2.9-14.9-3.1l0,0c-1.9-1.3-4-0.7-6.1-0.7
	l0,0c-2.2-0.4-4.5-0.7-6.8-0.3c-4.8-1.1-9.6-0.9-14.4,0.1l0,0c-5.8,0-11.6-0.3-17.1,1.9c-4.6,0.8-9.4,1-13.7,3.2
	c-1.2-0.5-2.1,0.2-3,0.8c-2,0.4-4,0.8-6,1.1c-1,0.7-2,1.3-3,2l0,0c-1,0.6-2.8,1-4.3,2l0,0c-0.9,0-1.8,0.7-2.7,1.2
	c-4.7,1.2-8.5,4.4-12.9,6.1c-5.4,3.9-11.2,7.2-16,11.8c0,0.3-0.1,0.5-0.1,0.8c-5.2,1.5-7.6,6.7-11.8,9.4c-0.3,0.6-0.7,1.2-1,1.8
	c-6.8,6.5-12.5,13.8-17.2,21.9c-0.9,1.7-1.9,3.5-2.8,5.2l0,0c-0.6,0.6-1.2,1.3-1.8,1.9c-0.7,1.6-1.4,3.3-2.2,4.9
	c-3.2,7-6.8,14-8.1,21.8c-0.2,0.2-0.3,0.4-0.1,0.7l0,0c-0.6,1.7-1.3,3.4-1.8,5.1c-2.1,7.7-2.5,15.6-3.9,23.4
	c-0.3,14.6,0.4,29,4.7,43.1c0.4,1.6,0.7,3.2,1.1,4.8c1.8,7.9,6.1,15,8.3,22.7c0.2,0.2,0.5,0.3,0.8,0.3c0.1,1.9,1.3,3.3,2.2,4.8
	c-0.2,0.3-0.2,0.6-0.1,0.9c3.9,2.8,5.4,7.3,8,11.1c1,1,1.9,2,2.9,3l0,0c1,1.6,2.1,3.3,3.1,4.9c3,3.1,5.9,6.2,8.9,9.3
	c4.3,4.9,9.3,8.9,14.6,12.6c0,0.1,0,0.1,0,0.1c0.8,2.8,3.6,3.5,5.6,5c2.4,1.3,4.2,3.5,6.9,4.2c2.3,1.2,4.5,2.8,6.9,3.9
	c4,2.7,8.3,4.8,13.1,5.9c1.7,1.2,4,1.1,5.8,2.1c5.6,2.4,11.4,3.7,17.3,4.6l0,0c2.2,0.2,4.5,0.3,6.7,0.5l0,0
	c14.1,2.8,28.1,2.4,42.2-0.1c1.6-1.1,3.6,0,5.3-0.9c4.8-1.1,9.6-2.2,14.4-3.3c1.9-0.9,3.7-1.8,5.6-2.7l0,0c4.9-0.8,9-3.7,13.6-5.2
	c3.4-2.1,6.7-4.1,10.1-6.2c1.7-0.5,3.2-1.2,4.1-2.7l0,0l0,0c3.1-1.5,6.1-3.1,8-6.1l0,0c0.2-0.3,0.2-0.5,0.3-0.8l0,0
	c0.5-0.1,1.1-0.1,1.6-0.2c3.7-3,7.4-6,11-9c4.2-4.8,8.9-9.3,12.1-14.9c1-0.3,1.6-0.9,1.9-1.9l0,0c6.2-7.9,11.4-16.4,15.2-25.8l0,0
	c0.5-0.9,1.1-1.8,1.6-2.7c0.1-0.8,0.2-1.7,0.2-2.5l0,0c0.5-0.8,1.1-1.5,1.6-2.3c0.1-0.7,0.2-1.3,0.4-1.9
	C656.3,89.8,657.4,63.3,650.8,36.5z M403.9,2.1c-0.1,0-0.1-0.1-0.2-0.1c0.1,0,0.1-0.1,0.2-0.1l0,0l0,0C403.9,2,403.9,2.1,403.9,2.1z
	 M433.2-30.7c0.4-0.3,0.8-0.5,1.2-0.4C434.1-30.9,433.7-30.8,433.2-30.7z M537.8-64.9L537.8-64.9C537.8-65,537.8-65,537.8-64.9
	l0.2-0.2C537.9-65.1,537.9-65,537.8-64.9z M472.1-56.5c0,0.1,0,0.3,0,0.4c-0.1,0-0.2,0-0.2,0l0,0l0,0C472-56.2,472-56.4,472.1-56.5z
	"/>
<path id="XMLID_1842_" class="st2" d="M531,144.5c-7.3-2.2-14.6-4.4-22.4-3.6c-2.9,0.3-4.8-3-7.8-1.9c-0.6-0.1-1.3-0.1-1.9-0.2
	c-3.3,0.2-6.5,0.1-9.8,0.1c-1.7-0.1-3.4,0.3-4.9-0.6c-0.5-0.4-0.7-0.9-0.4-1.5c4.9-3.5,10.5-2.3,15.9-2.1c7.4,3.7,15.8,2,23.4,4.1
	c2.2,0.8,4.3,1.6,6.5,2.4C531,141.8,533.2,142.4,531,144.5z"/>
<path id="XMLID_1840_" class="st3" d="M586.6,27.8c-3.9,5.8-8.8,9.1-16.2,7.3c-1.4-0.3-2.9,0.1-4.4,0.2c-0.4-0.4-0.5-0.9-0.3-1.4
	c2-1.9,4.5-1.8,7-1.9c7.5-0.3,14-8.6,12.8-16c-0.5-3-2.7-3.1-4.8-3.2c-6.8-0.5-13.6-0.4-20.4-1.2c-4-0.5-7.8-1.6-11.7-2.3
	c-0.5-0.1-0.9-0.2-1.4-0.3c-3.3-0.8-6.2-2.1-8.8-4.5c-1.8-1.6-3.8-3.4-6.6-3c-0.4,0.1-0.9,0.2-1.3,0.2c-2.8-0.1-4.5,4-7.8,2.2
	c-0.3-1.1,0.8-1.5,1.1-2.4c1-0.9,2-1.8,3-2.7c3.7-0.6,7.3-0.8,10.9,0.2l0.3-0.1c2.7,2.4,5.9,4.1,8.8,6.2V5c1.5,1.1,3.7-0.8,5,1.3
	c9.7,2.1,19.6,2.9,29.6,2.6c4.3-0.1,7.5,1.2,8.5,5.8C589.6,19.3,589.2,23.8,586.6,27.8L586.6,27.8z"/>
<path id="XMLID_1839_" class="st4" d="M523.8,1.6c-0.3,0.8-0.6,1.6-0.9,2.4c-0.3,0.7-0.9,1.3-1.3,1.9c-0.2,0.3-0.5,0.6-0.8,0.9
	c-1.2,1-2.7,1.4-4.1,2c-0.4,0.2-0.9,0.3-1.3,0.5c-2.1,0.7-4.2,1-6.4,1c-1.7,0-3.4,0.1-5.1,0.3c-4-0.8-6.9,1.5-10,3.5
	c-5.8,3.7-13.1,3.2-18.5-0.9c-0.5-0.4-0.8-1-0.8-1.7c0.1-0.2,0.3-0.4,0.4-0.6c2.6,0.7,5.2,1.4,7.9,2.1c0.4-0.3,0.6-0.3,0.8,0.2
	c5.8,2.4,9-1.5,12.4-5c2.1-1.3,4.5-0.9,6.9-1.2c4.3-0.8,8.7,0.3,12.9-0.9C519.5,6.1,520.4,1.5,523.8,1.6z"/>
<path id="XMLID_1835_" class="st5" d="M537.7-1c-3.6-0.1-7.3-0.1-10.9-0.2C530.5-2.8,534.1-3.1,537.7-1z"/>
<path id="XMLID_1834_" class="st6" d="M483.9,138.9c-5.2,2.4-10.3,5.1-16,6c-1.5,1.1-3.5-0.2-5,1c-5.3,1.2-8.8-1.1-11.1-5.8
	c0.2-0.2,0.3-0.4,0.5-0.6c0.9-0.5,1.9-0.4,2.8,0.1c2,3,4.7,3.8,8.2,3c4.6-1.1,9.6-1.1,13.9-3.6c2.2-0.7,4-4,6.8-1.2
	c0.1,0.1,0.2,0.3,0.4,0.4C484.4,138.5,484.3,138.8,483.9,138.9L483.9,138.9z"/>
<path id="XMLID_1832_" class="st6" d="M448.1,120c1.2-2.7,2.5-5.4,3.7-8.1c2.3,3.7,0.4,7.2-1.3,10.2c-2.3,4-2,7.4,0.3,11.1
	c1.2,1.9,2.3,4.1,1.2,6.5c-0.1,0.1-0.2,0.2-0.4,0.4c-1.7-0.5-1.8-2.3-2.8-3.3c-0.7-0.8-1.4-1.7-1.2-2.9
	C443.5,129.2,446,124.6,448.1,120z"/>
<path id="XMLID_1829_" class="st7" d="M451.9,94.9c-0.8-9.2-1-18.3,5.4-25.9c1.7-2,4.1-3.2,6.5-1c3.1,2.9,6.8,3,10.7,2.9
	c4.2-0.1,7.4,1.2,9.3,5.1v-0.1c2.8,7.2-0.5,13.5-3,19.9c-2.2,2-4.8,3.4-6.9,5.5c-2,2-4.7,2.1-7.4,2c-1.8-0.1-3.6-0.3-5.4,0.3
	c-0.5,0-1,0-1.5-0.2s-0.8-0.6-0.8-1.2c2-2.8,5.1-2.4,8-2.7c6.4-0.7,11.5-5.8,12.2-12.1c-0.1-1.8,0.5-3.4,1.1-5
	c1.1-6-0.5-8.4-6.3-9.1c-3.7-0.5-7.5-0.3-11-2.2c-2.4-1.3-5.3,1.3-6.4,5.2c-1.7,6.1-2.2,12.3-3.1,18.5
	C452.8,95.3,452.3,95.4,451.9,94.9z"/>
<path id="XMLID_1827_" class="st8" d="M453.2,99.9c-0.2-0.7-0.3-1.3-0.5-2c-0.3-1-0.5-2-0.8-3c0.4,0,0.7,0,1.1,0
	c2.4,0.1,2.5,1.8,2.5,3.6C455.1,99.6,454.3,100.1,453.2,99.9z"/>
<path id="XMLID_1826_" class="st9" d="M531,144.5c0.9-2.5-1.4-2.2-2.4-2.5c-1.7-0.4-3.5-0.6-4.7-2.1c1.3-2.7,3.3-1,4.9-0.6
	c8.4,2.3,16.7,5,25.6,4.3c3.4,0.8,6.8,0.8,10.2,1.6c7.9,1.8,14.1-0.9,19.3-6.7c2.1-1.8,1.7-4.2,1.7-6.5c0-1.2,0.1-2.3,0.3-3.5
	c-0.6-5.1-1.7-6.1-6.4-5.8c-1.3,0.1-2.6,0.3-3.7-0.8c-0.2-0.5-0.2-0.9,0-1.4c0.9-0.9,2-1.4,3.2-1.7c0.7-0.2,1.5-0.2,2.2-0.3
	c1.6,0,3.1,0,4.6,0.6c2.2,1.3,3.4,3.4,4,5.8c0.4,2.1,0.3,4.2,0.2,6.3c0,0.8-0.2,1.5-0.4,2.3c-0.6,1.7-0.6,3.4-0.8,5.2
	c-0.2,0.8-0.5,1.5-1.1,2c-0.2,0.2-0.2,0.5-0.2,0.7c-3.2,5.9-9.7,6.1-14.9,8.6c-4.3,2.3-7.4-1.8-11.2-2.2c-1,0.2-2,0.9-2.9,0.6
	C549.9,145.7,540,148.4,531,144.5z"/>
<path id="XMLID_1825_" class="st10" d="M561.8,148c3.8-0.8,7.2,3.5,11.2,0.9c0.3,1.3-0.4,2-1.5,2.4c-1.8-0.2-3.7,0.6-5.5-0.5
	C565.4,148.7,563.1,149.1,561.8,148z"/>
<path id="XMLID_1823_" class="st11" d="M497,40.2c-0.3-0.1-0.7-0.2-1-0.3c-1.2-0.9-2.6-1.3-3.9-2c-3.8-2.3-5.3-1.5-6.9,3.2
	c-0.2,2.8,0.4,5.6,0.7,8.4c0.5,4.6-1.7,7.2-6.3,6.7c-7.2-0.9-14.4-2.2-20.3-7c-7-5.7-7.6-13.9-8.8-21.9c0.2-2.1-0.6-4.2-0.5-6.3
	c0.4-1,0.1-2.2,1.1-2.9c1.4-0.6,0.7-1.8,0.9-2.8c0.3-0.6,0.5-1.2,0.9-1.8c1.5-1.6,2.2-3.9,4-5.3c5.5-3.8,12-2.6,16.8,3.2
	c0.3,0.9,0.8,1.9,0.1,2.8c-3.1,2.1-7.1,2.8-9.4,6.3c-1.1,1.7-2.6,1.2-3.3-0.7c-0.4-1.1-0.1-2.3-0.5-3.4c-4.5,7.8-4.6,17.3-0.4,24.8
	c1.1,1.9,2.1,1.4,3.6,0.6c2.4-1.1,4.9-4.5,7.6-0.4c1.6,2.5,0.8,3.8-4.1,7c0,0.8,0.7,0.7,1,0.5c2.9-1.3,7.2,3.6,8.7-0.8
	c0.9-2.7,1.8-5.9,2-9c0.6-7.3,6.8-11.1,13.7-8.3c1.7,0.7,3.1,1.2,5.1,0.3c3-1.4,10.3,2.3,11.3,5.4c0.6,1.7,1.4,3,2.8,4
	c2.4,1.7,3.9,3.8,2.7,6.8c-1.3,3.4-4.1,1.9-6.4,1.7c-0.7,0-1.3-0.1-2-0.3c-1.9-0.5-1.7-2.1-2-3.5c-0.4-2.6-1.8-4.1-4.6-4
	C498.7,40.9,497.9,40.5,497,40.2z"/>
<path id="XMLID_1822_" class="st12" d="M451.9,26.9c1.2,8.1,1.5,16.5,9,22c5.9,4.4,12.9,5.4,20,5.9c4.1,0.3,4.4-3,3.7-5.9
	c-0.8-3.1-0.8-6.2-0.5-9.3c0.9,0.1,1.3,0.7,1.6,1.4c0.4,2,0,4.1,1,5.9c0.1,0.5,0.1,1,0.1,1.6c0.1,2.7,0.2,5.3-2,7.4l0,0
	c-3.7,2.1-7.4,2-11.1,0.1h0.1c-1.6-1.4-3.6,0-5.3-1c-7.3-2.2-12.9-6.6-16.8-13.2c-0.9-1.9,0.3-4.1-0.8-6l0,0
	c-0.7-2.8-1.5-5.6-0.6-8.6C450.8,26.8,451.3,26.6,451.9,26.9z"/>
<path id="XMLID_1818_" class="st13" d="M484.5,56.8c-3.5,1-6.9,0.2-10.4,0c-0.1-0.3-0.2-0.5-0.3-0.8c3.7,0,7.4,0,11.1-0.1
	C484.8,56.2,484.7,56.5,484.5,56.8z"/>
<path id="XMLID_1816_" class="st13" d="M468.6,55c1.8,0.1,3.8-0.9,5.3,1C472.1,55.9,470.2,56.3,468.6,55z"/>
<path id="XMLID_1814_" class="st14" d="M582.9,104c-2.3,0.6-3.1,3-5,4c-1.2,2.1-3.6,1.1-5.3,2c-1.4,0.8-2.9,1.5-3.1,3.4
	c-0.2,2,1.3,2.7,2.7,3.6c1.5,1,4.1,0.9,3.8,3.7l-0.1,0.2c-2,1.2-3.8,0-5.8-0.2c-3.1-0.9-5.4-3.3-5.5-6.2c-0.2-3.5,1.9-6.6,5.3-8.2
	c3-1.4,6.2-2.2,9.1-3.8c5.1-4.4,7.4-9.9,6.1-16.6c-0.7-1.1-1.8-1.7-3.1-1.9c-2.5-0.8-5.3-0.6-7.5-2.2c-2.2-2.4-4.5-4.7-5.3-8.1
	c-0.8-5.1,2.2-7.6,6.3-9.3c1.1,0,2,0.5,2.6,1.5c-0.6,0.6-1.1,1.2-1.7,1.6c-6.5,4.1-6.3,7.6,0.6,12c2.9-0.2,5.9-0.7,8.7,0.4
	c1.9,1,2.8,2.6,2.9,4.7C589,91.9,588.7,98.8,582.9,104z"/>
<path id="XMLID_1812_" class="st4" d="M472.9,11.9c-4.6-5.5-10.6-6.6-16-3c-0.6-0.6-0.5-1.3,0-1.9c5.2-4.1,13.3-2.5,18.1,3.7
	l-0.3,0.4C474.4,11.9,473.9,12.4,472.9,11.9z"/>
<path id="XMLID_1811_" class="st15" d="M456.9,7c0,0.6,0,1.3,0,1.9c-1.3,1.7-1.1,4.4-3.8,5.1c0.6-2,1.3-4,1.9-5.9
	C455.7,7.7,456.3,7.4,456.9,7z"/>
<path id="XMLID_1808_" class="st16" d="M499.9,39.9c6.3-0.5,4.8,4.8,6,8c0.3,0.4,0.4,0.8,0.3,1.3c-2.2,3.3-3,7.1-0.4,10.1
	c2.5,2.8,6.5,3,10.2,1.7c1.7-0.6,3.4-1.3,5.1-2c2.7-1.1,5.3-0.8,7.1,1.7c2,2.8,3.3,5.8,1.7,9.3c-0.4,0.9-1.2,1.7-2.4,0.8
	c-1.3-1.8-0.3-4.3-1.9-6c-1.9-2.4-4-1.6-6.2-0.4c-4.3,2.3-8.9,2-13.4,0.8c-2.9-0.8-4.9-2.5-6.1-5.3c0-1.5,0-3.1,0.1-4.6
	c0.9-2.4-0.2-5.3,1.9-7.5C504.2,44.4,499.4,42.8,499.9,39.9z"/>
<path id="XMLID_1796_" class="st13" d="M486,47.6c1.4,2.3,0.8,4.7,0.5,7.2c-0.5,0.4-1.1,0.8-1.6,1.2C485.9,53.2,485.9,50.4,486,47.6
	z"/>
<path id="XMLID_1788_" class="st17" d="M499.9,76c2.8-1.6,5.6-1.1,8.5-0.2c2.3,0.7,4.7,1.3,7.2,1c0.4-0.2,0.9-0.3,1.3-0.1
	c-0.2,2.9-2.5,2.6-4.3,2.8c-1.3,0.2-2.6-0.4-3.9-0.6c-7.9-1.4-9.7,0.6-7.4,8.4c0.9,3.1,2.7,5.6,5.2,7.7c1.3,1,3.3,1.9,2.1,4.3
	c-0.7,0.3-1.4,0.1-2.1-0.2c-7-3.9-8.1-11-9.7-17.8C496.2,78.8,498.8,77.7,499.9,76z"/>
<path id="XMLID_1787_" class="st18" d="M506.6,99.1c0.8,0,1.5-0.1,2.3-0.1c2.3-0.5,4,1.4,6.2,1.4c0.9,0.1,1.7,0.5,2.4,1.1
	c0.7,0.8,2.2,1.3,1.1,2.8c-0.9,0.3-1.8,0.4-2.6-0.4h0.1c-2.7-1-5.3-2.1-8-3.1C507.5,100.1,507.1,99.6,506.6,99.1z"/>
<path id="XMLID_1784_" class="st19" d="M578.1,66c-0.8-0.1-1.7-0.2-2.1-1.1c-0.6-2.5,1.6-2.5,2.9-3.2c0.4-0.1,0.7-0.2,1.1-0.3
	c0.7-0.1,1.4-0.5,2-0.8c0.4-0.1,0.7-0.1,1.1-0.1c1.6-0.2,1.4-1.6,1.7-2.6c0.1-0.4,0.1-0.9,0.2-1.3c0.1-4.5-1.6-6.7-6.5-6.6
	c-3.6,0-7.2-1.1-10.8-1.7c-0.4,0-0.9-0.1-1.2-0.3c-1-1.1-2.2-2-3.3-3.1c-0.3-0.4-0.6-0.8-0.9-1.2c-4.3-5.9-4.3-5.9,1.6-10.2
	c0.7-0.2,1.4-0.1,1.9,0.5c0,0.4,0.1,0.9,0.1,1.3c-3.7,4.7-2.8,7,3.9,9.7c0.4-0.4,0.9-0.5,1.5-0.2c2.8,0.5,5.8,0.3,8.5,1.2
	c3.3,0.7,6.6,1.2,8.8,4.2c0.1,2.7-0.8,5.4-0.3,8.3c0.5,2.9-1.6,5.2-4.7,6.1C581.9,65,580,65.5,578.1,66z"/>
<path id="XMLID_1781_" class="st20" d="M554.9,144.9c-9.5,0.9-18.4-1.9-27.4-4.6c-1.1-0.3-2.3-1.4-3.6-0.3c-8-1.6-16.5,0.3-24-4
	c-0.6-0.6-0.6-1.3-0.2-2.1c2.1-1.6,4.5-1.4,6.5-0.3c3.6,2,7.1,1.8,11,1.5c3.6-0.3,7.4,0.8,10.9,1c7.2,0.4,12.8,6.2,20.1,5
	C551.1,141.2,554,141.3,554.9,144.9z"/>
<path id="XMLID_1780_" class="st21" d="M499.9,133.9c0,0.7,0,1.3,0,2c-5.4,0.2-11-0.8-16.1,1.8c-2.6-1.2-4,1.3-5.9,2.1
	c-0.9-0.3-1.5-0.9-1.4-2c5.6-6.4,12.7-8.9,21.1-7.1C499.1,131.1,501,131.4,499.9,133.9z"/>
<path id="XMLID_1778_" class="st22" d="M499.9,133.9c-0.2-2.1-1.8-2-3.3-2c-2.8,0-5.6,0-8.4,0c-2,0-4-0.3-4.5,2.6
	c-0.3,1.8-2.3,1.6-3.6,2.2c-1.3,0.5-3.1,0.1-3.3,2.3c-1.8,1.7-4.1,2.1-6.3,2.7c-2.1,0.6-3.9-0.2-5.3-1.9c-0.4-0.5-0.7-1.3-0.2-1.8
	c1.6-1.5,3.5-1.3,5.4-0.5c-2.3-1.2-4.6-0.3-6.9-0.1c-0.8,0.1-1.8,0.2-1.3,1.5c0.8,2.1,0.4,3.7-1.9,4.3c-2.8,0.7-3.7-1.6-4.9-3.3
	c-4.9-2.8-6.7-8-6.6-12.7c0-5.8,4.3-9.7,10-11.3c0.4-0.1,0.9-0.1,1.4,0c1.6,1.8,3.9,1.5,6,1.9c8.4-1.5,16.5,1.9,25.1,0.6
	c4.3-0.6,9.5-2.2,14.5,0.1c3,1.4,6.8,0.3,10.3-0.1c7.7-0.1,15.5,0.6,23.2,0.3c3.2-0.8,8.1-7.1,7.8-10.1c-0.2-2-1.5-2.9-3.3-3.1
	c-2.6-0.3-5.2-1.1-7.8-1.1c-2.8,0-5.1-0.8-7.2-2.8c-2.3-2.3-5.4-3.2-8.5-3.2c-2.1,0-4.3,1.5-5.8-0.8c-1.6-2.4,0.2-4.3,1.5-6.3
	c2.6-2.6,6.1,1,9.1-1.5c-2.5-0.7-4.9,0.1-6.9-0.7c-3.1-1.3-1.3,1.7-2.2,2.3c-2.4,1.8-5.2,0.6-7.8,0.8c-2.1,0.1-2-1.8-2.3-3.2
	c-0.5-2.2,0.1-4.2,2.5-4.7c2.7-0.5,4.3-2.3,6-4.1c0.4-0.3,0.8-0.5,1.3-0.5c1.8,0,3.6,0.6,5.2-0.6c3.7-1.8,8.1-2.8,9.1-8
	c0.4-2.2,1.9-2.4,3.6-0.8c0.6,0.6,1.5,0.8,2.2,0.1c0.6-0.6,0.2-1.3-0.3-1.7c-3.3-2.4-2-5.1-0.9-8c0.6-1.6,1.5-3.3-1.5-3.9
	c-2.1-0.4-2.4-3-3.4-4.6c-2-3-4.2-3.4-7-1.2c-1.2,0.9-2.1,2.1-3.2,3.1c-2.2,2-4.3,3.9-7.3,1.2c-0.6-0.6-1.6-0.6-2.4-0.3
	c-1.9,0.8-3.6,0.6-4.8-1.3c-1.2-1.9,0.3-3.1,1.1-4.5c0-0.3,0-0.7,0-1c1.3-0.9,2.6,0,3.8,0c1.3,0,3.1,1.5,3.8-0.7
	c0.6-1.8,0.7-3.7-1.2-4.9c-2.7-1.6-4.8-3.2-4.8-6.8c0-1.5-8.4-3.5-9.9-2.5c-1.9,1.4-3.3,0.3-4.7-0.9c-3.7-2.9-7.4-0.1-10.8,0.7
	c-1.9,0.5-2.9,4.2-1.8,7c0.6,1.6-0.4,2.5-1.3,3.4c-1,1.1-1.3,2.2-0.7,3.6c0.5,1.1,1.9,2.4-0.1,3.3c-1.4,0.7-2.8,2.3-4.5,0.9
	c-1.8-1.4-3.7-1.3-5.7-1c-1.4,0.2-3,0.7-3.3-0.9c-0.3-1.5,1.2-2,2.6-2.5c1.7-0.6,3.8-1.2,4-3.3c0.1-0.9-0.9-2.4-1.8-2.8
	c-2.2-1-4,1.3-5,2.2c-4.5,4.1-4.7-0.3-5.6-2.6c-0.9-2.3-1.6-4.6-2.3-6.9c-1.1-3.5-3.4-7.4,0.8-11c1.2-1.1,0.7-4.1,1.2-6.1
	c0.3-1.2,0.8-3,2.5-2.6c1.6,0.3,1.6,1.8,1.2,3.3c-0.3,1.3-0.4,2.6,0.6,3.9c2.7-4.2,6.2-6.7,11.2-6.7c0.2,0,0.4,0.1,0.6,0.1
	c1.4,0.6,2.9,0.6,4.3,0.8c5.9,3.6,10.8,1.4,16.4-1.6c4.6-2.4,10.6-2.2,15.9-3.2c1.9-0.3,3.6-0.4,4.8-2.1c0.3,0,0.7,0,1,0
	c1.2-0.9,3.3,0,4-2c0-0.3,0-0.6,0-1c3.9,0.2,7-1.7,10-4l0,0c3.5-0.7,5.2,1.5,6.5,4.2c0,0.5-0.7,0.7-0.8,1.2c0.4-0.4,0.8-0.8,1.4-0.9
	c2.8,1.4,5.8,2.2,8.9,2.6c0.3,0,0.7,0,1,0c4.1,3.6,9.1,4.6,14.3,4.2c5-0.4,9.9-0.2,14.9-0.1c1.6,0.1,3,0.1,3.5,2
	c1.3,3.3-1.3,3.7-3.3,4.1c-3.6,0.7-7.3,0.4-10,0.7c2.9-0.1,6.6-0.1,10.4-0.1c2.8,0,3.8-1.4,3.2-4.1c0.5-2.2,2.1-1.9,3.4-1.2
	c1.3,0.7,2.5,2.3,2,3.7c-1.2,3.3-0.5,8-5.5,9c-1.8,0.4-1.5,1.9-1.8,3.1c-0.6,2.3-2.5,3.9-4.4,2.8c-4.3-2.6-7.3-0.2-10.6,1.7
	c-0.4,0.7-0.7,1.9-1.2,2.1c-4.1,1.2-2.7,3-0.8,5.1c0.9,1.1,2.1,2.2,2,3.8c1,1,2,2,3,3l0,0c4,0.9,8,1,12,1.5c2.3,0.3,3.8,0.8,4.3,3.7
	c0.1,0.8,1.8,2.5,2.7,3.9c0,0.3,0,0.7,0,1c-0.9,1.1-1.2,2.8-3,3c-0.3,0-0.7,0-1,0c-1-0.4-1.4,0.5-2,1l0,0c-2.5-0.1-4.2,2-6.5,2.2
	c-1.2,0.1-2.3,0.3-3.5,0.2c-3.9-0.3-5.1-2.4-3.8-6.1c0.5-1.3,1.9-2.5,0.2-5.3c-1.5,3.8-1.8,7-0.9,9.8c2,5.9,0.2,12.3,3,18
	c0.4,0.7,0.1,1.9-0.8,2.1c-3.5,1.1-2.3,4-2.4,6.3c-0.1,1.2-0.3,3,1.5,3.3c1.5,0.3,2.4-1,3-2.2c1.3-2.7,2.7-5,6.4-4
	c2.1,0.6,4.4,1,4.8,3.6c0.4,2.7,0.7,5.4-2,7.2c-2,1.3-3.9,2.7-4.9,4.9c-1.3,2.6-2.8,4.4-6.1,3.8c-1.3-0.2-2.2,0.5-2.4,1.9
	c-1.3,6.9-0.2,13.8,0,20.8c0,2,1.9,2.4,3.5,3.1c2.7,1,5.6,0.9,8.2,1.9c1.6,0.6,3.1,1.7,3,3.6c-0.1,2.2-2.2,2.3-3.8,2.2
	c-5.7-0.1-11.5,1-17.1-1.9c0.4,1.8,2,1.8,2.7,2.7c1,1.4,1.1,2.8,0.1,4.2c-0.7,1.1-1.9,1.7-3,1.1c-2.5-1.3-5.9-1.6-7.2-4.2
	c-2-4.2-5.4-4.4-9.5-4.5c1.3,0.3,2.2,0.3,3.2,0.4c1.2,0.2,2.3,0.5,2.8,1.8c0.5,1.2,0.3,2.3-0.6,3.2c-4.2,2.1-7.4-0.7-10.8-2.4
	c-1.1-0.6-2-1.5-3.5-1.6c-2.4-0.2-5.9,3.3-7.1-1.9c-3.3,1.7-6.8-1-10.1,0.2c-3.7,1.3-7.1,1-10.3-1.4
	C504.3,133.3,502,134.1,499.9,133.9z"/>
<path id="XMLID_1777_" class="st23" d="M580.9,14.9c-5-4-11-2.5-16.1-1.5c-5.7,1.2-10.3-1.4-15.5-1.8c-2-0.1-1.2-2.4-1.4-3.7
	c11.3,2.4,22.7,3.3,34.2,3.4c3,0,4.9,1.7,4.9,5.4c-0.2,9.9-6,16-15.8,16.3c-1.8,0-3.6,0.6-5.3,0.9c-0.7,0-1.3,0-2,0
	c0.6-1.9,3-2,3.9-3.7c1.3-2.5,2.6-2.6,4.3-0.2c1,1.4,2.5,2.3,4.3,1.5c1.7-0.7,1.5-2.4,1.5-3.9c0-2.1-0.4-4.1,3.1-2.7
	c1.2,0.5,2.7-1.4,2.9-3.2c0.3-2.4,2.8-4.7,0.3-7.2C583.1,13.4,581.9,13.8,580.9,14.9z"/>
<path id="XMLID_1776_" class="st24" d="M546.9,7.9c-3.6,0.4-6.9-0.3-10-2l0,0c-1.1-2.7-3.3-4.2-6-5c3.3-2.9,5.7,0.4,7.5,1.9
	C541.1,4.9,543.8,6.7,546.9,7.9z"/>
<path id="XMLID_1775_" class="st24" d="M530.9,0.9c-2,4.3-5.2,5.6-10,4c0.4-0.8,1.2-1,2-1C526,4.1,527.4-0.5,530.9,0.9z"/>
<path id="XMLID_1774_" class="st25" d="M515.9,8c-0.1,1.1,0.1,2.9-1.4,2.7c-4.9-0.4-9.1,2.6-14,2.4c-2.9-0.1-6,0.1-8.1,2.8
	c-2.3,3.1-6.8,0.3-9.2,3.3c-1.4-1.6-2.2-4.3-5.3-3.3c-1.1-1.2-2.8-1.1-4-2l0,0c-0.3-0.7-0.7-1.3-1-2c0.6-0.3,1.3-0.5,1.9-0.8
	c7.3,5.4,12.8,5.6,20.1,0.8c2.7-1.8,5.3-4.3,8.9-2c1.5-1.1,3.5,0.2,5-1C511.3,9.2,513.6,8.5,515.9,8z"/>
<path id="XMLID_1773_" class="st24" d="M520.9,5.9c-0.3,2.7-2.4,1.8-4,2C518.2,7.3,519.6,6.6,520.9,5.9z"/>
<path id="XMLID_1772_" class="st24" d="M508.9,8.9c-1.4,1.7-3.3,0.8-5,1C505.3,8.3,507.2,9.2,508.9,8.9z"/>
<path id="XMLID_1771_" class="st26" d="M459.9,115.9c-2,2.6-5.8,2.1-7.8,4.9c-4.2,6.1-2.7,13.5,3.8,18.1c0.3,1-0.1,1.3-1,1
	c-0.9-0.1-1.9-0.1-2.8-0.2c-1-2.4-1.5-4.9-3-7.2c-2.2-3.3-2.5-6.8,0.1-10.4c2.1-3,2.8-6.6,2.7-10.3l0,0
	C456.3,109.3,459.5,110.9,459.9,115.9z"/>
<path id="XMLID_1770_" class="st27" d="M454.9,140c0.3-0.3,0.7-0.7,1-1c0.6,0.8,1.3,1.5,1.9,2.3c1,1.3,2.2,1.5,3.4,0.4
	c1.1-1,0.7-2.2-0.2-3c-2.9-2.4-0.5-2.6,1.2-2.6c3.7,0,7.4,0.3,11.4,0.4c-2.3,3.1-5.9-0.5-7.9,2.2c3.6,4.9,7.5,0.1,11.3,0.3
	c0.3,0.3,0.7,0.6,1,0.9c-5.5,3.3-11.9,3.3-18,4.3C457.7,144.5,454.6,143.7,454.9,140z"/>
<path id="XMLID_1769_" class="st28" d="M459.9,115.9c-1.1-4.4-4.1-5.2-8-4c-0.1-0.8-0.1-1.6,0.8-2.1c1.6-2.8,2.1-5.7,0.7-8.8
	c-0.1-0.2-0.3-0.5-0.4-0.7c0-0.1,0.1-0.3,0.1-0.4c0.6-0.3,1.2-0.7,1.8-1c0.8,0.3,1.8,0.9,1.6,1.6c-0.6,2.3,1,2.1,2.3,2.3
	c0.1,0.1,0.3,0.2,0.4,0.3c-0.5,0.6-0.9,1.2-1.4,1.8c-0.6,2-1.1,4,0.1,6c1.7,1.6,3.4,3.3,5.1,4.9C462,116.9,461,116.6,459.9,115.9
	L459.9,115.9z"/>
<path id="XMLID_1768_" class="st8" d="M453.4,101c2.3,3.2,2.8,6.2-0.7,8.8c0.1-0.3,0.1-0.6,0.1-0.9
	C453.7,106.4,453.1,103.7,453.4,101z"/>
<path id="XMLID_1767_" class="st29" d="M458.8,102.9c-4.1,1.5-2.5-2.7-3.9-3.9c-0.1-1.6-0.7-3-2-4c-1.6-7.6,0.8-14.8,3.1-21.7
	c1-2.9,4.1-6,8.3-2.7c2.6,2,5.7,1.3,8.7,1.4c7.5,0.4,10.3,4.3,7.9,11c-1.2-0.9-1.2-2.4-2-3.5c-1.5-2.1-3.7-2.7-6.1-2.7
	c-2.2,0-4.2-0.7-6.3-1.2c-1.9-0.4-3.4-3.7-6-0.7c-2.9,3.3-3.9,7.3-2.3,10.8c0.8,1.7,1.3,2.7,0.8,4.5c-1.7,5.6-1,7,4.9,7.3
	c2.7,0.2,7.4,2.2,7-4.1c-0.1-1.5,1.5-3.2,3-2.6c3.3,1.2,3.6-1.3,4.7-3c0.5-0.2,0.9-0.1,1.3,0.2c0.2,6.1-6.4,12.7-13.1,13
	C464,101,461.2,101.1,458.8,102.9z"/>
<path id="XMLID_1766_" class="st30" d="M479.9,78.9c1.5,1.1,0.9,2.6,1,4c-0.3,1.7-0.7,3.3-1,5c-0.3,0-0.7,0-1,0
	C476.4,85,476.8,81.7,479.9,78.9z"/>
<path id="XMLID_1765_" class="st31" d="M547.9,141.9c0.4-3-0.8-4.3-3.9-4.1c-1.7,0.1-3.6,0.5-5.3-0.8c3.6-3.7,7.7-0.9,11.5-1
	c0.9,0,1.6,0.6,1.6,1.6c0,4.5,4.4,4.4,6.7,6.4c1.4,1.2,2.5,0.6,3.1-0.9c0.5-1.3,0.4-2.7-1.4-3.1c-1-0.2-2-0.2-2.9-0.6
	c-0.8-0.3-1.3-1.1-1.2-2c0.1-1,0.8-1.4,1.7-1.4c1.5,0,3.3-0.5,4.4,0.1c5.5,3.1,11.2,1.2,17.2,1.8c-0.7-3-2.2-4.1-4.7-4
	c-0.7,0-1.3,0-2-0.1c-8.2-1.1-8.9-1.9-8.9-10.2c0-5.5,0.1-10.9,0-16.4c-0.1-3.1,1.5-4,4-3.2c2.7,1,3.7,0.4,4.4-2.4
	c0.6-2.4,2.8-4.4,5.1-5.3c3.7-1.5,2.8-4.4,2.4-6.6c-0.5-2.9-3.7-2.1-5.7-2.7c-1.4-0.4-1.9,0.9-2.1,2.1c-0.2,2-1.8,3.1-3.2,4.3
	c-2.5,2.2-4.4,1.6-4.7-1.7c-0.3-2.8-0.1-5.7-0.1-8.5c0-0.3,0-0.7,0.1-1c1.8-4,0.9-4.8,0.9-10.8c0-5.7-2.2-11.2-1-16.9
	c0.2-0.9-0.3-2.1,1.3-2.2c1.3-0.1,2.7-0.6,3.7,0.5c0.8,0.8,1.2,2-0.1,3.1c-0.6,0.5-0.8,1.4-1.1,2.1c-0.5,1.2-2.5,2.2-0.9,3.9
	c1.1,1.1,2.5,1.5,4.1,1c0.9-0.3,2-0.1,3-0.2c0.4,1.2-0.6,1.8-1.2,2.4c-4.5,4.2-4.8,5.7-2.4,11.7c0.4,0.5,0.8,1.1,1.2,1.7
	c2.6,4.8,6.8,5.1,11.5,4.2c1.6-0.2,2,1.4,3,2c0.4,5.1,0.3,10-4.6,13.2c-2.5,1.6-0.1,4.1-1.4,5.8c-2.8,1-5.6,2-8.4,3
	c-3.4,1.2-5.6,3.7-6,7c-0.3,2.8,2.3,4.4,4.3,6c3.8,1.7,7.4,3.8,12,3c3.1-0.5,4.3,2.4,5,5c0,1.3,0,2.7,0,4c-1,2.2,0,5.1-2,7
	c-4.6,6.7-11.1,9-18.9,7.9c-3.7-0.5-7.4-1.3-11.1-2C552.9,143.1,550.7,141.9,547.9,141.9z"/>
<path id="XMLID_1763_" class="st32" d="M586.9,127.9c-1.7-3.7-4.4-4.6-8.5-3.9c-3.4,0.6-6.2-1.6-8.5-4.1c2.1-0.3,4,0.6,6,1.1
	c1.2,1.3,2.6,0.7,4,0.5C584.3,120.8,586.6,123,586.9,127.9z"/>
<path id="XMLID_1762_" class="st32" d="M584.9,138.9c-0.1-2.6,0.9-4.8,2-7C586.6,134.4,588,137.3,584.9,138.9z"/>
<path id="XMLID_1761_" class="st33" d="M589.1,124.7c1.3,2.5,1.2,4.9,0,7.4C589.1,129.7,589.1,127.2,589.1,124.7z"/>
<path id="XMLID_1760_" class="st33" d="M588.8,133.9c0.1,1.7,0.4,3.5-0.9,5C587.9,137.2,587.4,135.4,588.8,133.9z"/>
<path id="XMLID_1759_" class="st33" d="M580.8,119.8c1.7-0.9,3.4-1.6,5,0.1C584.1,119.9,582.5,119.9,580.8,119.8z"/>
<path id="XMLID_1757_" class="st13" d="M485,40.6c0.9,2,1,4.2,1,6.3C484.1,45.1,485.2,42.8,485,40.6z"/>
<path id="XMLID_1756_" class="st34" d="M579.9,103.9c-1.8-3.6-2.1-5.7,2.7-8.1c2.5-1.2,3.1-6.9,3.3-10.9c1.9,4.9,0.4,9.5-1.9,13.8
	C583,100.6,581.3,102.2,579.9,103.9z"/>
<path id="XMLID_1755_" class="st34" d="M569.9,77.9c-3.5-5.6-3.5-10.7,4-15c2.1,0.2,3.7-2.4,6-1c-1,1.4-3.5,0.9-4,3
	c-3.1,2.3-6.7,4.2-6,9C570.6,75.3,570.7,76.6,569.9,77.9z"/>
<path id="XMLID_1754_" class="st34" d="M582.9,82.9c-5.5,3-10.7,1.2-12-4c1.9-0.5,2.6,1.5,4,2C577.4,82.4,580.2,82.4,582.9,82.9z"/>
<path id="XMLID_1753_" class="st19" d="M574.9,80.9c-1.7,0.1-2.6-1.4-4-2c-0.3-0.3-0.7-0.7-1-1c0-1.3,0-2.7,0-4
	C571.6,76.3,573.2,78.6,574.9,80.9z"/>
<path id="XMLID_1752_" class="st20" d="M505.9,48.9c0.1,1.5-1.6,3,0.1,4.6c1.8,1.7,2.6,0,3.7-0.8c0.8-0.6,1.6-0.6,2.2,0.2
	c3,4.2,5.1,1.2,7.4-0.8c0.9-0.8,1.6-1.7,2.4-2.5c2.8-2.8,6.4-2.1,8.6,1.2c1.5,2.3,1.6,6.7,7,4.9c-1.6,2.9-1.1,5.7-2.9,8
	c-0.8,1-0.6,2.6,1.1,3.2c1.9,0.6,2.8,1.8,2.3,3.7s-2.5,1.2-3.8,1.8c-2.5,1-1.4-2-3.3-2.9c0.9,7.5-4.8,8.6-9.7,10.5
	c-1.7,0.4-3.3,0.4-5,0c-0.3,0-0.7,0-1,0c-1.3,0.6-1.6,2.1-2.6,3c-1.9,1.6-3.9,3.2-5-0.8c-0.3-1.1-1.1-1.8-2.2-1.4
	c-1,0.4-0.4,1.4-0.4,2.2c0,6,1.3,11.2,7.8,13.4c2.3,0.8,3,2.4,2.4,4.6c-2.8,1.6-3.9-1.6-6-2c-1.4-3.1-5-4-6.8-7
	c-1.9-3.2-2.4-6.5-2.9-9.8s1.7-4.8,5.1-5c4.3-0.3,8.5,3.4,12.7-0.1c3.8-1.7,8-2.8,10.9-6.1c3.4-3.3,1.2-6.6-0.5-9.4
	c-1.9-3-4.7-2.3-7.7-0.7c-3.5,1.9-7.3,3.1-11.3,1.3c-2-0.9-5.2-0.7-5.1-3.7C503.5,55.2,501.2,51,505.9,48.9z"/>
<path id="XMLID_1751_" class="st35" d="M527.9,70.9c-2.6,3.8-6.1,6.2-10.9,6.1c-0.5-0.1-0.9-0.1-1.4-0.2c1.8-0.9,3.5-1.8,5.3-2.7
	c1.8,0.2,3.4-0.3,4.3-2.1c2.6-2.3,1.8-5.2,1.6-8C529,66,527.5,68.6,527.9,70.9z"/>
<path id="XMLID_1750_" class="st36" d="M498.9,105.7c6.2,7.6,14,10.5,23.6,8.4c1.4,0.4,2.8,0.6,3.9,1.7c0.8,0.7,1.2,1.6,0.8,2.7
	c-8.5-1.9-18.3,1-25.6-6.2c-0.4-0.3-0.8-0.6-1.1-0.9c-1.7-2.5-4.4-3.6-7.2-4.5c-0.4-0.2-0.8-0.3-1.2-0.6c-3.6-1.9-5.6,2.2-8.7,2.3
	c-0.7,0-1.4-0.1-1.9-0.8c1.1-1,2.2-2,3.3-3C489.9,101,494.4,103.9,498.9,105.7z"/>
<path id="XMLID_1749_" class="st28" d="M481.6,107.8c0.8,0,1.5,0.1,2.3,0.1c0.1,2.5-2.3,2.6-3.6,3.8c-2.6,1.2-4.9,2.9-7.4,4.3
	c-2.7,0.5-5.5,3-8.2-0.2C470.9,114.2,475.8,110,481.6,107.8z"/>
<path id="XMLID_1748_" class="st26" d="M464.7,115.8c2.9,1.4,5.4-0.6,8.2-0.9c-1.2,3.6-3.8,4-7,3c-2.5,0.7-5,1.7-6-2
	c1,0,2.1,0,3.1-0.1C463.6,115.9,464.2,115.8,464.7,115.8z"/>
<path id="XMLID_1747_" class="st8" d="M457.9,110.9c-2.4-1.9-1.5-3.9-0.1-6C457.9,106.9,457.9,108.9,457.9,110.9z"/>
<path id="XMLID_1742_" class="st37" d="M514.9,100.9c-0.8-1.7-1.3-3-3.7-3.7c-5.1-1.5-7.9-7.2-7.5-13c0-0.5,0.1-1,0-1.5
	c-0.1-1.3-3.5-3.3,0.5-3.7c1.8-0.2,5.1-0.7,4.4,3.5c-0.3,2,1.4,1.2,2.3,0.7c1.6-0.8,1.8-3.3,4-3.4c-1.2,2.8-2.6,5.2-6.4,5.1
	c-2.6-0.1-1.9,2-1.7,3.6c0.2,1.4-0.3,2.8,2.2,2.1c2.1-0.6,4.5,0.1,6.8,0.2c-0.1,1.1,0.1,2.5-0.5,3.4c-0.8,1.2-1,2.1,0,3
	c0.8,0.8,2,0.9,2.8,0.3c3.7-3,8.4-0.1,9.6,1.4c4.2,5.4,10.1,3.7,15.1,4.8c5.8,1.2,7.7,3.4,4.3,8.2c-2,2.9-1.6,8.4-7.3,8
	c-0.8-0.8-1.7-1.7-1.6-3c2.7-6,2.4-8.1-1.4-11l0,0c-4.1-0.7-8.4,0.4-12.5-1.1c-2.6-0.7-4.8-2.4-7.5-2.9
	C516.3,101.6,515.6,101.2,514.9,100.9z"/>
<path id="XMLID_1741_" class="st38" d="M516.9,101.9c2.9-1.4,4.9,0.5,7,2c-1.7,1.1-3.4,0.6-5.1,0l0,0
	C518.2,103.3,517.6,102.6,516.9,101.9z"/>
<path id="XMLID_1740_" class="st34" d="M585.9,56.9c-1.7-0.4-2.9-4.8-5.2,0.1c2.1-6.5,1.9-6.1-4.2-7.3c-3.2-0.7-7,1.4-9.6-1.8
	c0.7-0.2,1-1.6,2-1c3.1,1.7,6.7,1.5,10,1.9C585.7,49.7,585.9,49.5,585.9,56.9z"/>
<path id="XMLID_1739_" class="st34" d="M579.9,61.9c0.3-1.2-0.7-3.1,1-3.3c1.2-0.2,0.8,1.5,1,2.4C582,62.7,581,62.4,579.9,61.9z"/>
<path id="XMLID_1738_" class="st34" d="M582.9,60.9c0.6-1.3,1.7-2.3,3-3c0.2,1.9-0.3,3.5-2.1,4.3C583.1,62.5,583,61.5,582.9,60.9z"
	/>
<path id="XMLID_1737_" class="st34" d="M566.9,47.9c-1.9-0.1-2.9-1.1-3-3C565.8,45,566.8,46,566.9,47.9z"/>
<path id="XMLID_1736_" class="st39" d="M465.9,117.9c2.6-0.4,5.4-0.3,7-3c2.1-1.7,4.3-3.2,7-4c2.9-1.2,5.9-2.1,8.1-4.5
	c1.4-1.6,3.1-1.7,4.9-0.5l0,0c2.3,2.3,5.3,3.4,8,5l0,0c4,3.1,7.4,7.1,13.2,6.6c0.6-0.1,1.1,0.7,0.8,1.4c-4.4,1.3-8.8,2.3-12.9-0.8
	c-0.2-0.2-0.8-0.4-0.8-0.4c-2.8,4.5-6.9,0.1-9.6,1.2c-6.4,2.7-12.2,0.4-18.2-0.7c-1.9-0.3-3.1,0.9-4.6,1.2
	C467.6,119.7,465.2,121.6,465.9,117.9z"/>
<path id="XMLID_1735_" class="st40" d="M514.9,118.9c-5.9-0.5-10.9-2.5-14-8c5.8,4.3,12.2,5.9,19.4,5.1c2.4-0.3,3.9,3.2,6.7,1.7
	c0.4-0.2,0.9-0.3,1.3-0.3c3,0.5,5.9,0.4,8.7-1c0.7-0.1,1.4-0.1,2,0.5c0.3,1,0.7,2,1,3c-7.2,0-14.5,0-21.7-0.1
	C517.1,119.9,516,119.3,514.9,118.9z"/>
<path id="XMLID_1734_" class="st37" d="M521.3,91.9c-1.7-0.3-4-0.5-6-1.7c-1.5-1-1.9-2.6-0.8-3.8c1.6-1.8,1.3,1.1,2.2,1.2
	c2.3,0.2,4.6,0.2,6.9,0.4c1.3,0.1,3.6-0.8,3.7,1.2c0.1,1.7-1.7,2.7-3.6,2.7C523.1,91.9,522.4,91.9,521.3,91.9z"/>
<path id="XMLID_1733_" class="st23" d="M581.5,15.1c0.7,3.3,0.9,5.8-3.8,5c-4.9-0.9-10.1,1-15.4-1.4C568.8,16.6,575.5,19,581.5,15.1
	z"/>
<path id="XMLID_1732_" class="st11" d="M475.2,45.6c-1.1-0.1-1.2-0.9-1.2-1.7c0-0.6,0.1-1.5,1-1.4s1.3,0.9,1.3,1.7
	C476.4,44.9,475.9,45.4,475.2,45.6z"/>
<path id="XMLID_1731_" class="st24" d="M536.9,5.9c0.1,0.7,1,1.7-0.4,1.8c-1.4,0.1-2.2-1.1-1.7-2.2C535.2,4.7,536.2,5.8,536.9,5.9
	L536.9,5.9z"/>
<path id="XMLID_1730_" class="st11" d="M473.9,13.9c1.7-0.1,3.2,0.2,4,2C476.6,15.2,474.3,16.5,473.9,13.9z"/>
<path id="XMLID_1729_" class="st37" d="M515.9,79.9c1.7-0.5,3.3-0.5,5,0C519.3,81.4,517.6,81.4,515.9,79.9z"/>
<path id="XMLID_1728_" class="st41" d="M479.9,78.9c-1.4,2.9-1.5,5.9-1,9c-1,2.3-0.9,5.5-5.3,3.8c-1.6-0.6-3,2.1-1.7,3.4
	c2.4,2.1,0,2.5-0.9,2.9c-4.6,2.1-9.3,0.1-13.9-0.3c-0.9-0.1-0.8-1.2-0.5-1.6c1.6-2.2-2.1-5.9,2-7.4c0.1,0,1-2.8-1.3-1.2
	c-0.6,0.4-1.2,0.4-2.1-0.3c1.2-1.8,1.7-3.7,1-6.1c-1.2-3.9,4.3-5.5,4.1-9.3c0-0.1,1-0.4,1.2-0.3c4.6,4.1,10.5,3.7,15.9,5
	C478.5,76.7,479.1,78.1,479.9,78.9z"/>
<path id="XMLID_1727_" class="st40" d="M492.9,105.9c-2.1,0-3.8,0.1-5.2,2.5c-1.6,2.6-5.1,1.9-7.8,2.5c1.3-1,2.7-2,4-3
	C486.9,107.2,488.7,101.2,492.9,105.9z"/>
<path id="XMLID_1726_" class="st40" d="M500.9,110.9c-0.2-0.1-0.3-0.2-0.4-0.2c-4.3,1.2-5.9-1.9-7.6-4.8
	C496.3,106.5,499.7,106.9,500.9,110.9z"/>
<path id="XMLID_1724_" class="st18" d="M518.9,104c1.7,0,3.4,0,5.1,0c4.3,0.8,8.9,0,13,2C530.6,107.8,524.6,107,518.9,104z"/>
<path id="XMLID_1723_" class="st18" d="M538.9,117c-0.7,0-1.3,0-2,0c-0.3-0.2-0.4-0.4-0.3-0.6c0.1-0.2,0.2-0.3,0.3-0.3l-0.1-0.4
	c3.9-3.2,2.8-6.5,0.1-9.8c3.2-1.4,3.2,1.5,3.8,3C541.7,111.9,540.3,114.5,538.9,117z"/>
<path id="XMLID_1722_" class="st36" d="M537,116.1c0,0.3,0,0.6,0,0.9c-2.7,3.1-5.9,2.4-9.1,0.9C530.9,117,534.3,118.5,537,116.1z"/>
<path id="XMLID_1721_" class="st29" d="M467.3,94.5c-1.7-1.7-1.6-2.8-0.1-4C468.3,91.8,468.1,93,467.3,94.5z"/>
<path id="XMLID_2_" class="st0" d="M901.8-9.8c0,2.6,0.7,6.8,0.7,7.5c0.8,3.3,1.9,6.3,5.6,7.8c1.6,0.4,8.2,0.4,9.8,0.4
	c5-1.7,8.2-5.2,9.4-10.2c1.3-5.4-0.6-10.3-4.7-13.8c-3.9-3.4-7.7-7.1-12.8-9c-2-0.3-4-0.7-6-1c-3.4-1-6.8-2.4-10.1,0
	c-0.1,0.2-0.1,0.3-0.2,0.5c-0.2,0.7-0.2,1.3-0.3,1.9c0.2,2.2,1.9,3.8,3.3,5.6C900.4-17.7,901.1-14.8,901.8-9.8z"/>
<path id="XMLID_51_" class="st0" d="M1221.8,11.9c1.1-0.6,4.1-2,4.1-2c7.1-3.4,14.4-6.5,21.7-11.4c0,3-17.6,29.6-17.6,29.6
	c-1.7,2.2-12.3,15.6-14.1,17.7c-2,2.5-3.2,5.4-1.1,8.1c2.5,3.2,4.6-0.5,6.9-1.2c5.6-3.6,11.2-7.2,17-10.9c0.7,2.2,0.3,36.7,0.4,52.1
	c0,1.7-0.7,3.7,0.8,5.2c0.3,0.3,4.7,4.3,7.4,4c2.9-0.3,5.8-0.9,8.7-1.3c3.3-1.3,5.6-3.4,6.4-6.7c0-0.5-1.2-51.4-1.2-67.2
	c0-1.4-0.6-3,0.6-4.3c1.6-3.3,9.3-7.9,10-8.9c3.5-2.6,3.3-5.4,0.3-8.2c-2.4-2.2-13.6-10.1-17.2-10.8c-0.5-0.7-0.9-1.3-1.4-2
	c0.2-0.3,16.3-7.2,16.3-7.2c2.6-1.7,4.7-3.9,2.3-6.8c-2.6-3.2-5.5-6.2-9.2-8.1c0,0-7-5.3-7.8-6c-2.5-1.7-5.1-3.5-7.6,0
	c-0.9,0.3-31.3,37.8-33.6,40.2c-1.7,1.8-2.2,3.9-1.4,5.8C1213.6,14,1220.4,12.2,1221.8,11.9z"/>
<path id="XMLID_54_" class="st0" d="M1082.9,101.9L1082.9,101.9L1082.9,101.9c3,0,1.2-2,1.4-3l0,0c2.1-2,18.9-21.8,22.5-25.3
	c0.5-0.6,1-1.1,1.4-1.7c0.8-1,1.5-2,2.8-3.8c0.5,3.9,1.1,6.8-0.2,9.7l0,0c-3.1,1.7-4.2,4.7-1.9,7c2.2,4.7,4.8,9.3,6.5,14.2
	c1,2.7,2.3,4.2,5,4.7c5.9-3.6,23.7-25.3,27.9-29.7c0.5,1.3,5.4,12.8,6.9,15.8c2.6,3.1,4.2,7,7.7,9.4c1.1,1.1,1.9,1.4,3.1,2.6
	c3.2,2.1,6.7,5.5,9.7-0.1s7-9.3,13.6-10.2c2.3-0.3,3.8-2.2,4.1-4.4c0.4-2.3-1.7-3.4-3.3-4.3c-3.7-2.1-7.5-3.9-11.3-5.8
	c-1.9-0.6-13.7-12.1-14.5-13.1c-2.9-3.4-2.4-5.5,2.3-6.4c7.5-1.5,13.9-6.2,21.4-7.8c4.5-1,5.1-4.4,1.9-7.8c-1.8-1.9-4.2-2.6-6.4-3.7
	c-2.8-1.5-7-2-3.6-6.9c0.6-0.9,0.1-2.6-0.1-3.9c-1.6-12.4-0.8-25-1-37.4c0-1.5-0.2-2.9,1.5-4.3c3.6-2.9,3.4-5.4-0.1-8.7
	c-3.9-3.7-8.9-5-13.8-6.8c-2.9-1.1-5-0.6-7.2,1.7c-1.4,1.5-2.6,4.2-4.8,4c-10.1-0.7-20.5,2.4-30.4-2.8c-3.5-1.8-6.6-5.3-11.3-4.3
	c-1.8,2.4-3,4.9-1.9,8l0,0c1.2,3.4,0.1,6.9,0.6,10.5c-3.4-0.1-4.6-3-6.6-4.7c-3.3-2.9-6.2-3.8-9,0.5c-3.2,4.8-7.3,8-14,5.9
	c3.2-4.7,4.1-10.8,10.5-13.2c3.4-1.3,3.3-4.2,1.1-6.9c-7.7-3.6-15.5-6.9-24.1-7.5c-1.8-0.1-3.1,0.1-3.3,2.5
	c-1.4,15.3-6.3,29.6-12.3,43.7c-1.4,3.4-3,6.7-4.4,10c-0.9,2.2-0.9,4.4,1.1,5.9c1.9,1.4,3.8,0.4,5.3-1.2s4.7-2.5,9.5-2.5
	c6.8,0,6.3,1,6.3,8.6c0,1.2-0.1,2.3,0,3.5c0.2,2.3-0.8,2.9-2.9,2.8c-4.2-0.1-8.3,0.2-12.5-0.1c-2.8-0.2-3.9,1.3-4.5,3.5
	c-0.8,2.9,3.8,6.8,7.2,6.3c3.9-0.7,13.3-0.7,13.3-0.7c0,11.8-0.2,18.9-0.2,29.6l-0.9,1.3c-2.5,2.5-5.4,2.8-3,6.1
	C1069.5,82.5,1080.9,101.9,1082.9,101.9z M1132.3,68.8L1132.3,68.8c-0.1-11.2-0.2-22.4-0.3-33.7c0.6-0.4,1.2-0.8,1.8-1.2
	c1.6,0,3.2,0,4.9,0.1c2.7,4.9,3.4,18,3.6,19.2C1144.6,65.4,1144.6,65.4,1132.3,68.8z M1163.9,38.4c-1.8,4.6-4.8,7.9-8.6,11.1
	c-2.6-5-5.8-9.6-5.1-15.5c2.2,0.1,4.5,0.1,6.7,0.2C1158.2,37.1,1160.7,38.2,1163.9,38.4z M1132.4-15c6.8,0,13.6,0.1,20.3,0
	c2.8-0.1,4.1,0.4,4.1,3.7c0.2,11.4,0.4,11.4-11.2,11.4c-4.5,0-8.9-0.1-13.4-0.2C1132.3-5.1,1132.3-10,1132.4-15z M1145.6,9.1
	c11.2-0.2,11.1-0.1,11.3,11.3c0.1,3.8-0.7,5.3-4.8,5c-6.6-0.5-13.2,0.5-19.8-0.6c0-4.9-0.1-9.8-0.1-14.7
	C1136.4,7.8,1141.1,9.2,1145.6,9.1z M1103.5,60.5c-3.7,1.8-7.4,3.5-11.2,5.3c0-7.3,0-14.5,0-21.8c5.5-0.1,10.9-0.1,16.4-0.3
	c2.1-0.1,2.8,0.6,3,2.8C1112.2,55.1,1111.3,56.8,1103.5,60.5z M1067.1,12.1c0.5-2.2,8.5-13.5,10.6-13.5c11.1,0.2,22.2-0.8,33.2,0.5
	l0,0c0.4,2.1,0.5,4.2,0.6,6.4c0.5,9.1-0.3,18.2,0.2,27.6c-4.5-1.2-5.9-5.9-9.7-7c-1.3-0.9-2.7-0.6-4-0.2c-1.7,2.2-2.8,5-5.7,6.1
	c0-2.6,0-5.3,0-7.9c0.6-0.9,1.2-1.8,1.9-2.7c4.6-0.2,9.2-0.3,13.9-0.5c1.8-1.1,1.8-3.1,2.1-4.9c-3.4-3.5-6.7-7.3-10.3-10.5
	c-3.2-2.8-6.4-1.4-9.1,1.2c-1.1,1.1-4.5,5.4-5.8,5.4C1078.9,12.1,1073.1,12.1,1067.1,12.1z"/>
<path id="XMLID_68_" class="st0" d="M803.9,61c0,0.1,0.1,0.3,0.1,0.4C804,61.3,804,61.2,803.9,61z"/>
<path id="XMLID_70_" class="st0" d="M733.9,103.8c4.4-1,16.7-4.1,27-9.8c11.8-6.4,21.9-14.7,29.3-26.1c0.9-1.7,7.3-13.8,8.9-24.6
	c1.6,13.5,7.6,24.3,9,27.6c12.2,18.8,31.7,28.6,34.1,29.9l0,0c2.7,1.6,5.6,1.4,6.6-1.5c2.8-7.8,8.9-10.8,16-13.2
	c5.1-1.7,5.4-4,2.1-8.4c-3-0.9-19.7-5.4-21.2-6.7c-8.7-4.2-24.2-19.6-28.8-24.1l0,0c-3.7-2.7-10.7-19.3-11-22c5.4,0,34,0.5,46.2,0.5
	c2.9,0,6.8,0,8.8-0.5c4.3-4.1,4.2-5.8-0.7-10.1c-2.8-3.1-8.9-9.7-12.3-11.9c-5.2-1.4-6.1,2.3-9.1,5.9c-2.2,3.4-2.9,7.1-7.3,7.2
	c-9.1,0.2-18.2,0-27.3,0.1c-1.4,0-2.8,0-2.2-2.1c-0.1-3,0.9-31.2,2.8-33c5.9-7.1,5.5-11.1-1.8-13.3c-2.8-0.8-22.6-2.4-24.3-1.8
	c-2,5.1-1.2,10.2-0.1,15.2c0,0,0.2,20.9,0.3,31.4c0,1.8,0.4,3.7-2.6,3.6c-14.1-0.6-28.3,1-42.3-1c-1.9-0.3-3.4-0.4-4.6,1.8
	c-1.9,3.6,1.4,8,6.4,8.1c12.3,0.1,24.6,0.3,36.9-0.1c4.5-0.1,5.3,1.4,4.9,5.4c-0.8,7.5-2.2,14.7-5,21.7c-1,2.8-5.1,11-5.1,11
	c-0.4,1.6-6.8,9.6-7.9,11c-2.5,3-16.4,15.9-22.9,18.2c-2,1-4,2-6,3c-1.9,1-3.6,1.7-4.1,3.9l0,0c0,0-1,2.7,0.2,4
	C727.1,102.9,728.9,105.5,733.9,103.8z"/>
<path id="XMLID_72_" class="st0" d="M1268.9,17.8c-2.7,3.6-1.5,5.2,2,7.3c0.7,0.2,1.4,0.5,2.1,0.7c11.2,0.1,22.5,0.2,33.7,0.2
	c0.1,16.4,0.2,32.8,0.2,49.3c0,5.7-5.1,3.5-7.9,3.5c-4-0.1-8-0.1-12-0.2c-2.5,1.3-3.2,3.5-2.7,6s2.5,3,4.7,3.2c5.2-0.1,8,3.4,10.8,7
	c1.1,8.1,3,9.4,11.4,8c2.3-0.4,4.6-0.7,6.7-1.4c6.2-2,11.1-5.5,12.1-12.6l0,0c0.7-19.6,0.1-60.6,0.1-62.4c6.4-0.2,13.6-0.4,19.9-0.6
	c3.3,0,4.1-2.6,4.2-2.9c1.3-3.9-16-19.3-21.2-19.1c-3.5,2.7-5.7,6.4-7.9,10.1c-1.1,1.9-2.2,3.4-4.9,3.4c-14.8,0-29.5-0.2-44.2-0.3
	C1273.4,17,1271.3,16.4,1268.9,17.8z"/>
<path id="XMLID_75_" class="st0" d="M1022.3,104.7c0.2,0,0.7-1.4,0.7-1.7c0.3-6.5,0.3-13.1,6-17.7c3.9-3.2,2.2-5.3-1.1-7.2
	c-1.3-0.9-2.7-1.1-4-0.1c-5.9,1-10.2,2.3-17.7,3.2c-7.5,1.1-19.3,1.3-23.3,1.7c0.1-0.3,0.3-0.8,0.5-0.8l0,0c1.3-1.4,5.2-2.9,5.4-3.3
	c0-5.9,0-9.9,0-16.6c0-3.4,0.8-4.2,4-4.1c10.4,0.1,20.8,0,31.2,0c3.8-4.5,3.3-8.5-1.4-12.4c-1.8-1.5-3.5-3.1-5.2-4.7
	c-5.1-5-8.8-4.6-13,1.2c-1,1.3-1.9,2.8-2.7,4.2c-1,1.7-2.2,2.5-4.3,2.6c-8.8,0.2-8.7,0.4-8.8-8.4c0-10.1,0-10.1,10.1-10.1
	c5.6,0,19,0.1,19.4,0.1c2.4-0.3,3.3-1.8,3-4.7c0-0.3-2.9-4.6-4.3-6.5c-3.4-3.2-6.9-6.2-11.1-8.2l0,0c-1.7-0.3-3.1-0.1-4.2,1.7
	c-1.4,2.3-3.3,4.4-4.9,6.6c-1.8,2.6-4.5,1.4-6.8,1.4c-1.3,0-1-2.4-1-4.3c0-4.2-0.2-10.2,3.4-11.7c1-0.4,3-5-0.9-6
	c-0.4-0.4-0.1-0.9,0.6-0.9c9.3,0,20.8,0,30.1,0c2.1,0,3.9-2.7,3.9-5.6c0-3.9-13-15.3-14.9-15.3l0,0c-1.6,0.1-3.3,0.2-4.9,0.3
	c-2.5,2.4-4.4,5.4-6.2,8.3c-0.9,1.4-1.7,2.7-3.8,2.7c-6.9-0.1-13.9,0-21.2,0c1.2-3.3,1.4-6.3,5.1-7.8c4-1.6,3.9-5.8,0.3-8.4
	c-2-1.4-16.4-7-17.3-7.8c-1.9,0.1-3.9,0.1-5.8,0.2l0,0c-0.5,4.2-0.7,8.5-1.7,12.7c-2.7,11.4-4.2,12.3-16,10.5
	c-0.8-0.1-1.6-0.3-2.4-0.4c-2.1-0.5-3.3,0.5-4.3,2.3s-0.1,2.8-0.1,4.9c0,5.5,6.8,3.2,10.5,3.2c2,0,3.8-0.8,4.6,0.6
	c0.9,1.6-0.4,3-1.7,4.8c-1.9,3.3-9.4,14.5-10.8,15.5l0,0c-1.3,1.9-3.2,3.6-2.1,6.3c2.5,2.5,4.9,5.3,7.6,7.6
	c3.4,2.9,6.3,5.7,11.3,3.7c0,0,0.9-0.6,1-0.9c2.7-3.9,11-6.4,14.9-4.6c0.7,0.3,1.9,0.8,1.9,1.5c0,15.6,0,16-1.6,16
	c-4.5,0-22.6,0.2-29.9,0.2c-5,0-8.3,1.2-7.5,4.4c0.9,3.4,3.4,5.8,7.6,5.7c8-0.2,16-0.1,24,0c7.6,0.1,7.4-1.2,7.4,6.6
	c0,4.9,0.1,11.4,0.1,18.2c-2.7,0-5.3,0-8,0c-10.2-0.8-20-3-29-7.9c-3.2-0.3-4-2.1-4-5.1c0.1-11.1,0.1-22.3,0-33.4c0-1.9,0-3.5,2-4.7
	c2.6-1.5,2.2-3.7,1.2-6c-0.1-0.3-3.3-3.9-3.3-3.9s-7.1-4-8.7-4.6c-0.4-0.1-8.1-2.7-10.4,1.7c-2.4,4.6-5.5,4.3-10.3,4.3
	c-1,0-7.1-0.8-8.7,0.8c-2.3,2.3-1.4,5.4,0.3,6.7l0,0l0,0l0,0c4.9,1.7,10.1-0.2,15,1c1.3,0.5,0.9,1.6,0.9,2.5
	c0,11.6-0.1,23.3,0.1,34.9c0.1,3.9-2.2,4.3-4.9,4.6c-1.2,1-11.9,5.5-13,6.1c-0.6,1.7-1.4,3.5-0.6,5.3c2.7,5.7,5.3,11.3,8.3,16.9
	c1.5,2.8,3.9,2.6,6.3,0.8c1.1-1.8,8.2-12.6,10-13.8c5.7-5,7.8-4.5,13.1,0.6c7,6.6,14.6,12.1,24.7,13.8
	C974.6,107.4,998.4,105.6,1022.3,104.7z M966.8,21c-2.1-0.1-4.3,0-7.3,0c2.8-6,5.3-11.2,8.2-17.3c1.2,5.6,1.1,10.3,1.4,14.9
	C969.1,20.3,968.5,21.1,966.8,21z"/>
<path id="XMLID_77_" class="st0" d="M1287.9-12.3c13.7,0,17.1-0.1,27.1-0.1l0,0c8,0,17.2,0,25.9,0c1.3,0,3.4-0.1,3.9-0.9
	c0.9-1.4,0.5-3.4-0.8-5.1c-2.8-4-6.5-7-9.9-10.5c-5.9-6.1-9.4-5.8-14.2,1.1c-3.1,4.5-5.5,6.7-12.6,6.7c-8.2,0-17.3-0.1-26-0.2
	c-2.3,0-3.1,1-3.9,2.9c-0.9,2-0.2,3,1.1,4.3C1280.6-12.1,1284.6-12.3,1287.9-12.3z"/>
<path id="XMLID_80_" class="st0" d="M1227.4,179.2c-0.1-0.6-0.5-2.8-1.5-2.8c-0.9,0-2.3,10.7-7.5,10.7c0,0-2.9-0.1-2.9,0
	c0,0-14.3,0-14.6,0l0,0c-1.7,0-2-0.7-2-3.1c0-12.2,0-24.4,0-36.6c0-2.7,4-2.3,6.1-3.3l0,0c1.6-1,0.7-3.9,0.7-3.9
	c-7.4,0-14.1,0.1-21.9,0.1c-1.2,0-2.1,0.8-2,2.1c0.1,2.2,2.9,2.1,5.9,2.8c0.7,1.5,0.6,2.6,0.5,4.1c-0.1,9,0,31.8-0.1,34.3
	c-0.1,1.9-0.8,3.6-3.2,3.5c-0.7,0-1.3,0-2,0c-6.3,0-6.1-1-10.2-9.8c-1.5-3.6-11.5-28.6-12.1-30.5c-0.8-2.5-2.2-6.6-5.3-6.6
	c-2.2,0.5-2.3,1.6-3.4,3.9c-0.5,1.2-12.7,31.8-15.9,39c-0.9,2-2.3,4.1-5.1,4c-1.1,0.4-1.3,1.6-1.5,2.3c0,0.5,0.1,0.9,0.3,1.3
	c0.4,0.4,1.3,0.6,2.8,0.6c3.3,0,6.7-0.1,10,0c3.6,0.1,5.2-0.7,3.1-3.6c-0.7-0.7-1.3-0.6-1.6-0.6c-3.2-0.5-3.1-1.3-2.1-3.5
	c0.1-0.2,2.9-7.7,4-10.1c4.3-0.1,8.6-0.1,12.9-0.2c0,0,2.2,6.2,3.1,9.1c1.2,3.7,2.5,4.7-1.7,4.9l-0.8,0.1c-0.5,0.1-0.8,0.3-1.1,0.7
	c-0.6,0.7-1.1,1.7-0.5,2.6c0.8,1.2,2.7,1,4,1c21.2,0,42.3,0.1,63.5,0c2.2,0,2.1-2.8,2.1-4.5C1227.4,184,1227.4,182.3,1227.4,179.2z
	 M1147.1,169.8c2.1-6.9,3.3-8.7,5.2-15c2.6,6.3,3.3,9.2,5.2,15.1C1154.4,169.8,1150.3,169.8,1147.1,169.8z"/>
<path id="XMLID_82_" class="st0" d="M1051.1,141.7c-0.5-1.1-1.3-1.3-3.9-1.3c-7.1,0-28.3-0.1-35-0.1c-2.5-0.6-0.2,3.9,2.1,4.2
	c2.9,0.3,3.8,2.2,3.8,4.9c0,10.9,0,21.9,0,32.8c0,2.9-0.8,4.7-3.9,4.7c-1.9,0-2.8,0.8-2.6,2.6c0.2,2.1,1.9,1.4,3.1,1.4
	c6.6,0.1,13.3,0,19.9,0c1.3,0,2.8,0.2,2.8-1.8c0-1-0.9-2.2-2.5-2.2c-2.3,0-5.8,0-5.8-2.1c-0.1-2.5-0.2-5-0.2-7.5
	c0-6.7-0.3-10.5,3.6-10.5c2.8,0,4.5-0.1,8-0.2c2.7,0,2.7,4.2,2.9,5.2c0.5,2.3,2.4,3.1,4.4,0.9c-0.1-1.3-0.1-11.3,0-15
	c-1.5-1.1-4-2.5-4,0.7c0,5.4-7.7,4.5-12.1,4.5c-2.3,0-2.8-0.8-2.8-2.9c0-5.2,0-9.2-0.1-13.8c0-2.7,9.5-2.6,12.7-1.6
	c3.7,1.1,6,4,8.3,6.8c0.8,1,1.9,2,3.4,1.2c1.2-0.6,1.6-1.6,0.9-2.9C1054,149.3,1051.3,142,1051.1,141.7z"/>
<path id="XMLID_85_" class="st0" d="M874.7,139.9c-5.8,0-10,0-15.8,0c-0.8,0-0.9,1.3-0.9,1.3c-0.3,3.2,3,2.8,4.6,3.4
	c2.8,0.7,2.1,3.2,2.2,4.2c0,7,0,14,0,21c0,1.6-0.2,2.1-1,3c-1.1-1.3-23.4-24.2-27-28c-4-5-9.7-4.6-16.6-4.6c-1.5,0-2.3,0.2-2.3,1.8
	s1,2,2.3,2c3.6,0,5.4,1.6,5.4,3.8c0.6,12.3,0.5,24.6,0,36.9l0,0c0,1.5-0.4,1.9-0.8,2.1c-3,0-8.9,0.2-9,0c-0.7-0.7-1.3-1.4-2-2
	c-0.7-0.5-1-1.1-1.2-1.9c-0.5-1.5-0.8-1.8-0.9-2.8c-0.6-1.4-1.1-2.9-1.7-4.3c-4.3-10.8-8.6-21.5-12.9-32.3c-1.7-4.4-4-5.2-5.9-0.8
	c-2.7,6-4.3,10.2-7.2,17.1c-0.4,0.9-8.8,20.9-10.5,24.2c-1,2.1-2.1,1.9-5.5,3.3c-0.9,0.4-0.9,1.3-0.8,2.1c0.1,1.4,1.2,1.5,2.2,1.5
	c3.9,0,9.2,0,14.4,0c0-1.5,0.1-3.6-1.9-4c-3.5-0.6-3.5-2.7-2.5-5.4c0.3-1,3.5-8.7,3.5-8.7c4.3,0,9,0.1,13.3,0.1
	c0.2,0.3,3,6.7,4.2,9.7c1.4,3.4-0.2,4.5-3.4,4.1c-1.6,0-1.4,2.4-1.4,2.4c0,1.2,1.2,1.7,2.1,1.7c9.8-0.1,19.5-0.1,29.3-0.2
	c2.3,0,4.7,0,7,0c1.4,0.1,3.3-0.1,3.9-0.7c0.6-0.6,0.5-2.3-0.9-2.3c-3.7,0-4.8-1.3-6.2-2.9l0,0c0-8.3-0.1-16.6,0-24.9
	c0-1.4-0.1-3.8,1.2-4.3c10.5,12.2,22.9,22.5,33.9,34.2c1,1.5,2.5,1.2,3.9,0.9c0.1-15,0.1-27.7,0.2-42.7c0-6,7.6-2.8,7.6-6
	C877.6,140.1,876.5,139.9,874.7,139.9z M784.1,169.9c-0.7,0,4-10.6,6.1-15.2c1.7,6,3.1,10.5,4.5,15.1
	C791.6,169.9,784.3,169.9,784.1,169.9z"/>
<path id="XMLID_88_" class="st0" d="M1361.2,140c-6,0-17.3,0-17.3,0c-1.8,3,2.6,3.5,4.4,4.1c2.6,0.6,2.6,2.9,2.6,5.3
	c-0.1,7.5,0,15.6,0,22.6c-10.6-10.1-21.4-20.5-32.2-30.8c-0.5-0.6-0.9-0.9-1.8-1c-4.2,0-9.9,0-12,0c-0.3,0.3-0.6,0.5-0.7,0.8
	c-0.6,2.9,0,4,2.2,4h0.8c4.6,0,4.8,8,4.8,10.1c0.1,8.3,0.1,16.6,0,24.9c0,1.7-0.2,7.5-2.2,7.5c-3.4,0-4.5-0.1-8.6-0.1
	c-1.7-1.6-2.8-4.2-3.7-6.4c-4.8-12.2-9.6-24.4-14.5-36.6c-2.1-5.2-4.1-6-6.2-1c-3.4,8-15.3,34.9-17.7,39.9c-0.3,0.8-1.5,3.8-5.1,3.8
	c-7.2,0.1-7.3,0.1-7.4-6.9c0-9.6,0-17.4,0-28.9c0-3.6,0.1-6.8,5-6.8c1.2,0,2.2-0.7,2.1-2.2c-0.1-1.6-1.2-1.8-2.4-1.8
	c-6.6,0-13.3,0-19.9,0c-1,0-2.1,0.1-2.2,1.4c-0.2,1.3,0.2,2.2,1.6,2.6c1.6,0.5,3.7-0.2,5,2.3c0,0.4,0.1,24.4,0.1,36
	c0,2.9-3.5,3.2-5.1,3.4c-1.7,0.2-2.6,1.3-2.6,3.1c0.1,2,1.4,2.4,3,2.4c11.8,0,23.6,0,35.3,0c3.7,0,3.4-2,1.8-4.4
	c-3.9,0-6.4-0.1-5.3-2.8c1.4-3.5,3-7.6,4.8-11.2c4.3,0,10.1-0.1,14.4-0.1c1.6,3.9,3.9,8.9,4.9,11.4c1.1,2.8-0.1,3.7-5.2,3.7
	c-1.5,0.5-0.9,1.8-0.9,3.8c14.9,0,28.1,0,42.8,0c0.5-3-1.5-4.5-3.3-4.5c-2.1,0-4.2-1.4-4.3-3.8c0-9.8,0-17.1,0-26.9
	c0-1.6,0.4-2,1.6-0.8c2.5,2.6,25.5,26.7,34.1,35.9c3.4,0.8,3.3-1.1,3.3-3.5c-0.1-11.6,0-24.3,0-35.9c0-5.8-0.6-8.8,4.4-8.8
	c0.4,0,2.5-0.3,2.4-1.8C1362.1,141.2,1362,140,1361.2,140z M1280.7,169.6c-3.1,0-8.7,0-11.8,0c-0.1-0.3,4.7-10.2,6.8-14.5
	C1277.6,160.4,1279.2,165,1280.7,169.6C1280.8,169.6,1280.7,169.6,1280.7,169.6z"/>
<path id="XMLID_89_" class="st0" d="M933.8,187c-1.5-1.2-3.6-1.5-5.4-3.1c-0.4-0.3-15.3-16.4-15.5-16.7c-6-6.2-6-6.2-0.8-11.7
	c1.2-1.3,9.1-10,12.8-10.8l0,0c2-0.6,3.8-1.4,3.1-3.6c-0.1-0.3-0.3-0.7-0.5-1.1c-4.9,0-17.6,0-18.1,0l0,0l0,0
	c-1.2,2.1-1.4,3.7,1.7,4.2c2.9,0.5,2.9,2.6,1.3,4.4c-4.8,5.2-9.7,10.3-15.3,16.2c0-6.1-0.1-11.2,0-16.3c0.1-2.4,1.1-4,3.9-4.1
	c3.5-0.2,3.9-1.9,1.7-4.5l0,0c-7.8,0-14.2,0-21.7,0c-1.8,2.2-1.9,4.1,1.4,4.4c3,0.3,4,2.1,4.1,4.7c0,11.1,0,22.3-0.1,33.4
	c0,2.6-1.2,3.7-4.2,4.4c-1.7,0.4-2.3,0.7-2.3,2.3c0.1,1.7,1.1,1.7,2.4,1.7c6.5,0,13,0,19.4,0c1.3,0,2.3-0.3,2.2-1.9
	c0-1.4-0.3-1.3-1.9-1.6c-1.4-0.3-4.2-0.3-5.1-1.9c0-5.2,0-9.1,0-14.3c1.2-1.6,3.7-2.4,5.1-1c4,4,7.9,8.2,12,12.3
	c2.3,2.3,3.2,4.2-1.2,4.8c-1.3,0.2-2.3,0.4-2.2,2.1c0.1,1.7,1.2,1.6,2.4,1.6c6.5,0,13,0,19.4,0c0.9,0,2.1,0.4,2.4-1
	C935.2,188.9,934.9,187.9,933.8,187z"/>
<path id="XMLID_92_" class="st0" d="M1130.9,162.9c-1.2-9.4-6.7-14.1-13.3-18.9c-2-1.1-5.7-2.4-7.7-2.8c-12.6-2.5-20.4-0.5-31.6-0.9
	c-1.1,0-2,0.3-2.1,1.5c-0.1,1.6,0.6,2.5,2.3,2.6c3.2,0.1,4.3,2,4.3,4.9c0,11,0,21.9,0,32.9c0,2.6-1,4.6-4,4.6c-3-0.1-3.1,1.8-2.9,4
	c1.8,0.6,2.7,0.4,4.1,0.4c4.4,0,16.1,0.2,18.1,0.2c2.2,0,8-0.7,8.7-0.8c5.4-0.8,10.3-2.9,14.9-5.8c1.9-1.4,3.1-2.3,4.2-3.9l0,0
	c2.1-3.5,4.1-6,4.9-11.1C1131.1,167.2,1131.2,165.3,1130.9,162.9z M1118.7,174.7c-1.4,5.6-4.4,9.8-10.4,11.4l0,0
	c-0.6,0.2-6.9,0.9-12.4,0.9c-2.2,0-2.2-2.6-2.2-4.5c0-10.8,0.1-21.6,0-32.4c0-3.6,1.2-5.3,5.1-5.7c9-0.8,16.2,3.2,19.1,11.7
	C1120.1,162.2,1120.2,168.5,1118.7,174.7z"/>
<path id="XMLID_95_" class="st0" d="M768,176c-1-5.8-4.6-9.4-10.1-11.1c0-0.6,0-0.6,0-1.2c3.2-1.1,7.2-1.9,7.2-10.3
	c0-8.1-7-13.1-13-13.1c-8.1,0-14.2,0-23.9,0c-1.1,0-2.4-0.1-2.6,1.6c-0.1,1.4,0.5,2.4,1.9,2.4c4.6,0.1,4.6,2.8,4.6,6.6
	c0,11.4,0,18.9,0,29.9c0,4.8-1.5,6.4-6.2,6.4c0,2.4-0.9,3.9,2.7,3.8c8.1-0.2,16.3-0.1,24.5-0.2c3.2-0.1,6.3-0.6,9-2.5
	C766.4,185.4,768.9,181.4,768,176z M742.9,146.2c0-2,1.7-1.9,3.5-1.9c3.4,0,5.3,0.3,6.9,2.8c3.6,5.4,2.7,11.9-3,15.3
	c-1.9,0-7.4,0.1-7.4,0.1C742.9,156.7,742.9,151.6,742.9,146.2z M757.7,179.9c0,2.5-1.3,5.4-3.9,6c-3.4,0.8-5.4,0.8-8.7,0.3
	c-1.8-0.3-2.1-0.8-2.1-3c-0.1-3-0.1-10.4-0.1-13.4s1.2-3.6,5.7-3.6c4.9,0,9.2,3.2,9.2,9C757.8,176.7,757.7,178.3,757.7,179.9z"/>
</svg>
